<svg width="1024" height="1024" xmlns="http://www.w3.org/2000/svg" version="1.1">
 <defs>
  <filter id="svg_1_blur">
   <feGaussianBlur stdDeviation="0" in="SourceGraphic"/>
  </filter>
 </defs>
 <g>
  <title>Layer 1</title>
  <path filter="url(#svg_1_blur)" stroke="null" id="svg_1" fill="#3C3B3B" d="m22,26.6666c280.49999,0 529.74412,148.78906 818.74411,148.78906c0,283.80003 184.25586,548.81098 184.25586,841.21101c-280.49999,0 -555.99998,-174 -844.99997,-174c0,-283.80003 -158,-523.60005 -158,-816.00007z"/>
  <path id="svg_2" fill="#e5e3f7" d="m512.2041,142.8147c2.89566,-0.00218 5.79093,-0.02039 8.68652,-0.03931c18.66269,-0.05564 37.73476,0.86273 55.85938,5.65821c6.97799,1.75661 14.05804,3.15497 21.125,4.5039c11.57762,2.32314 22.33158,5.20299 33.125,10.0625c1.66308,0.67555 3.32973,1.34242 5,2c10,4 10,4 12.49609,5.02735c2.49844,0.97053 4.99631,1.77644 7.56641,2.53515c0.8366,0.24879 1.6732,0.49758 2.53515,0.75391c2.12579,0.6049 4.25463,1.16278 6.40235,1.68359c0,0.66 0,1.32 0,2c0.80437,0.2475 1.60875,0.495 2.4375,0.75c4.30574,1.51079 8.41614,3.35189 12.5625,5.25c0,0.66 0,1.32 0,2c0.66,0.0825 1.32,0.165 2,0.25c3.99039,0.9976 7.38549,2.82167 11,4.75c0,0.66 0,1.32 0,2c1.03125,0.22688 2.0625,0.45375 3.125,0.6875c2.8922,0.81052 4.75116,1.8272 7,3.8125c2.65248,2.30651 4.57546,3.4325 7.875,4.5c0,0.66 0,1.32 0,2c0.66,0.04125 1.32,0.0825 2,0.125c4.32666,1.26194 7.71837,3.80509 11,6.875c0,0.66 0,1.32 0,2c0.66,0.33 1.32,0.66 2,1c5.37464,2.74217 9.42856,6.02372 13.78906,10.19532c2.12894,1.9225 2.12894,1.9225 4.80078,2.83593c2.68762,1.08028 3.62758,2.06029 5.34766,4.34375c2.66718,3.31004 5.4651,5.32879 9.0625,7.625c1.68982,1.64319 3.35323,3.31368 5,5c1.39929,1.39122 2.7986,2.78241 4.19858,4.17293c2.16032,2.14674 4.31781,4.29633 6.47525,6.44597c1.12963,1.1246 2.26016,2.24831 3.3916,3.37109c7.52455,7.46868 14.93836,14.92928 21.37207,23.38501c2.50365,3.26149 5.0457,6.48545 7.625,9.6875c2.41982,3.02361 4.83168,6.05117 7.1875,9.125c0.43828,0.57106 0.87656,1.14211 1.32812,1.73047c1.60144,2.34496 2.98063,4.7908 4.37305,7.26392c1.61644,2.80206 3.39947,5.48902 5.17383,8.19311c3.564,5.48906 6.98199,11.05378 10.3125,16.6875c0.63736,1.07097 0.63736,1.07097 1.2876,2.16358c2.06865,3.52465 3.82379,6.94301 5.2749,10.77392c1.29615,2.54909 2.63125,5.07422 3.97656,7.59766c1.02344,2.40234 1.02344,2.40234 1.02344,6.40234c0.66,0 1.32,0 2,0c0.54527,1.47147 0.54527,1.47147 1.10156,2.97266c0.50748,1.3634 1.01532,2.72667 1.52344,4.08984c0.27215,0.73171 0.54431,1.46341 0.82471,2.21729c1.71297,4.57616 3.53353,9.08928 5.42529,13.59521c2.84168,7.05521 5.1713,14.24108 7.4375,21.5c0.34982,1.10586 0.69964,2.21171 1.06006,3.35108c1.66219,5.42731 2.94172,10.54331 3.40503,16.20068c0.45076,4.20188 1.72383,8.23583 2.84936,12.29785c1.07804,4.0555 1.45976,7.59571 1.37305,11.77539c0.28273,1.676 0.61412,3.34471 1,5c1.27652,5.79558 2.11259,11.03279 2,17c0.38252,3.16945 0.83346,6.2609 1.53515,9.375c0.63749,3.59991 0.48635,7.06747 0.40235,10.71094c-0.00242,2.95755 -0.00242,2.95755 0.55469,6.01563c0.69174,5.31046 0.65243,10.54937 0.63281,15.89843c0.00387,1.05446 0.00773,2.10891 0.01172,3.19532c-0.00522,4.16355 -0.04211,8.16118 -0.64844,12.28515c-0.8772,6.32284 -0.48715,12.7247 -0.36133,19.0957c0.08605,8.35696 -0.67588,15.92623 -3.75195,23.73633c-1.22098,3.27445 -1.69583,5.26537 -1.375,8.6875c-0.66,0 -1.32,0 -2,0c0.0116,0.67547 0.0232,1.35094 0.03515,2.04688c0.01354,1.33804 0.01354,1.33804 0.02735,2.70312c0.0116,0.88172 0.0232,1.76344 0.03515,2.67188c-0.08939,2.36001 -0.42852,4.32311 -1.09765,6.57812c-0.66,0 -1.32,0 -2,0c0.0116,0.60328 0.0232,1.20657 0.03515,1.82813c0.00903,0.79922 0.01805,1.59844 0.02735,2.42187c0.0174,1.18336 0.0174,1.18336 0.03515,2.39063c-0.09531,2.30276 -0.4551,4.15329 -1.09765,6.35937c-0.33838,1.18916 -0.33838,1.18916 -0.6836,2.40235c-2.11953,7.12736 -2.11953,7.12736 -3.4414,10.28515c-1.00482,2.36743 -1.00482,2.36743 -1.20703,5.27344c-0.70084,5.19474 -2.5266,10.0404 -4.23047,14.97656c-0.49403,1.45503 -0.49403,1.45503 -0.99805,2.93946c-0.8077,2.37627 -1.62096,4.75047 -2.43945,7.12304c-0.99,0 -1.98,0 -3,0c-0.12375,1.0725 -0.2475,2.145 -0.375,3.25c-0.5311,3.18659 -1.06649,5.0226 -2.625,7.75c-0.33,0.99 -0.66,1.98 -1,3c-0.66,0 -1.32,0 -2,0c-0.18563,1.88719 -0.18563,1.88719 -0.375,3.8125c-0.32368,3.29076 -0.69105,4.28658 -2.625,7.1875c-0.66,0 -1.32,0 -2,0c-0.08315,1.68416 -0.08315,1.68416 -0.16797,3.40235c-0.68672,5.46368 -3.29436,9.54014 -6.14453,14.16015c-0.97527,1.6263 -1.95053,3.25261 -2.92578,4.87891c-0.47389,0.77819 -0.94779,1.55638 -1.43604,2.35815c-1.15806,1.92221 -2.27271,3.85965 -3.36865,5.81763c-2.1742,3.75819 -4.52775,7.34924 -6.95703,10.94531c-0.42539,0.63358 -0.85078,1.26715 -1.28906,1.91992c-0.83586,1.24481 -1.67432,2.48788 -2.51563,3.72901c-0.79232,1.18557 -1.56869,2.38196 -2.32812,3.58887c-0.90723,1.43181 -1.88137,2.82083 -2.86719,4.1997c-0.66,0 -1.32,0 -2,0c-0.22559,0.69867 -0.45117,1.39735 -0.6836,2.11719c-1.60265,3.50967 -3.85045,6.14525 -6.3789,9.00781c-0.99297,1.14777 -1.98514,2.29622 -2.97656,3.44532c-0.49662,0.57266 -0.99323,1.14533 -1.50489,1.73535c-4.27869,4.97889 -8.42974,10.08114 -12.45215,15.26855c-1.91211,2.31466 -3.86968,4.26683 -6.1289,6.23828c-0.6832,0.60457 -1.36641,1.20914 -2.07031,1.83203c-1.80469,1.35547 -1.80469,1.35547 -3.80469,1.35547c-0.09797,0.59942 -0.19594,1.19883 -0.29688,1.81641c-0.84565,2.62621 -1.80323,3.4339 -3.95312,5.12109c-3.11407,2.53176 -5.94341,5.18575 -8.75,8.0625c-7.82116,7.99851 -7.82116,7.99851 -11,10c-0.66,0 -1.32,0 -2,0c0,0.66 0,1.32 0,2c-2.39598,2.02784 -4.80379,3.932 -7.3125,5.8125c-1.14819,0.86625 -1.14819,0.86625 -2.31958,1.75c-47.36691,35.4375 -47.36691,35.4375 -58.36792,35.4375c0,0.66 0,1.32 0,2c-0.95262,0.39832 -1.90524,0.79664 -2.88672,1.20703c-1.26701,0.53496 -2.53393,1.07013 -3.80078,1.60547c-0.62584,0.26104 -1.25168,0.52207 -1.89649,0.79102c-2.71521,1.15147 -5.29095,2.3179 -7.79101,3.88867c-3.78775,2.1757 -7.80679,3.43362 -11.9375,4.82031c-5.60398,1.91171 -11.1796,3.8467 -16.6897,6.01514c-9.59005,3.76301 -19.43809,6.3632 -29.39599,8.96313c-2.62593,0.71581 -5.21846,1.50844 -7.81666,2.31861c-3.97659,1.20933 -7.83606,1.96282 -11.97265,2.45312c-4.80103,0.57613 -9.17134,1.59268 -13.8125,2.9375c-17.28258,3.84669 -34.75034,4.06883 -52.37445,4.17423c-1.39573,0.00871 -2.79145,0.02016 -4.18714,0.0346c-7.77592,0.07104 -15.15096,-0.2277 -22.7846,-1.77182c-3.76445,-0.6199 -7.44052,-0.523 -11.24366,-0.44091c-2.88529,0.00467 -5.58312,-0.44448 -8.41015,-0.9961c-1.32,0 -2.64,0 -4,0c0,-0.66 0,-1.32 0,-2c-1.01063,0.18563 -2.02125,0.37125 -3.0625,0.5625c-3.91664,0.43519 -7.07995,0.14603 -10.9375,-0.5625c0,-0.66 0,-1.32 0,-2c-0.825,0.20625 -1.65,0.4125 -2.5,0.625c-3.68864,0.39521 -5.98174,-0.08526 -9.48047,-1.08203c-2.96551,-0.7973 -5.97989,-1.13379 -9.01953,-1.54297c-1.33784,-0.31478 -2.67204,-0.64587 -4,-1c-1.6652,-0.34061 -3.33158,-0.67558 -5,-1c0,-0.66 0,-1.32 0,-2c-1.94906,0.06188 -1.94906,0.06188 -3.9375,0.125c-4.96477,-0.02302 -9.28589,-0.818 -14.0625,-2.125c-0.6144,-0.16661 -1.2288,-0.33322 -1.86182,-0.50488c-8.29675,-2.27292 -16.32922,-4.77615 -24.22021,-8.2373c-4.27552,-1.843 -8.64107,-3.43438 -13.00782,-5.04688c-2.91015,-1.21094 -2.91015,-1.21094 -5.16406,-2.60937c-2.47485,-1.44338 -4.79109,-2.45498 -7.45312,-3.48829c-20.92994,-8.17787 -40.07542,-21.11914 -57.97608,-34.5227c-2.30705,-1.74076 -2.30705,-1.74076 -5.31689,-2.59058c0,-0.66 0,-1.32 0,-2c-0.59813,-0.26812 -1.19625,-0.53625 -1.8125,-0.8125c-2.19805,-1.19322 -3.43429,-2.43429 -5.1875,-4.1875c-1.11375,-0.61875 -1.11375,-0.61875 -2.25,-1.25c-2.43646,-1.55047 -4.01976,-2.94642 -6,-5c-3.26232,-3.37628 -6.76916,-6.18656 -10.53906,-8.97656c-2.60839,-2.09224 -4.87079,-4.38285 -7.21094,-6.77344c-1.24581,-1.23727 -2.49335,-2.47281 -3.74219,-3.70703c-1.37766,-1.36844 -2.75526,-2.73693 -4.13281,-4.10547c-0.68192,-0.67353 -1.36383,-1.34707 -2.06641,-2.04101c-4.56821,-4.54647 -8.86089,-9.25807 -13.05859,-14.14649c-0.92563,-1.04816 -1.85262,-2.09512 -2.78125,-3.14062c-13.81883,-15.72087 -25.65409,-32.61656 -36.66089,-50.39624c-1.56056,-2.4674 -3.18612,-4.87967 -4.8313,-7.29126c-2.01431,-2.9975 -3.61588,-5.79737 -4.78906,-9.23438c-1.2082,-3.25361 -2.52182,-6.0436 -4.4375,-8.9375c-2.33945,-3.56588 -3.84368,-7.15631 -5.34766,-11.13672c-1.08389,-2.69319 -2.3002,-5.29013 -3.57178,-7.89892c-7.31036,-15.05639 -14.1204,-32.17254 -15.58056,-48.96436c0.33,-0.66 0.66,-1.32 1,-2c-0.66,0 -1.32,0 -2,0c-1.125,-5.75 -1.125,-5.75 0,-8c-0.66,0 -1.32,0 -2,0c0,-1.32 0,-2.64 0,-4c-0.66,0 -1.32,0 -2,0c-0.53642,-3.20592 -1.05131,-6.41496 -1.5625,-9.625c-0.2272,-1.35545 -0.2272,-1.35545 -0.45899,-2.73828c-0.75601,-4.81741 -1.18585,-8.82337 0.02149,-13.63672c-0.66,0 -1.32,0 -2,0c-0.51137,-4.24871 -1.00695,-8.49912 -1.5,-12.75c-0.14309,-1.18722 -0.28617,-2.37445 -0.4336,-3.59765c-0.77314,-6.73739 -1.15489,-13.28888 -1.05322,-20.06836c0.04519,-2.73388 0.04519,-2.73388 -0.50537,-6.00586c-0.79416,-5.59581 -0.6515,-11.18426 -0.63281,-16.82813c-0.00387,-1.18336 -0.00774,-2.36672 -0.01172,-3.58593c0.00129,-1.1318 0.00258,-2.2636 0.00391,-3.42969c0.00112,-1.029 0.00225,-2.05799 0.00341,-3.11817c0.1294,-2.61621 0.1294,-2.61621 1.1294,-5.61621c0.06923,-3.52216 -0.00268,-7.03253 -0.0625,-10.55468c0.05469,-3.01511 0.41516,-5.52048 1.0625,-8.44532c0.21613,-1.93451 0.40232,-3.87255 0.5625,-5.8125c0.08379,-0.97582 0.16758,-1.95164 0.2539,-2.95703c0.23879,-3.26416 0.23879,-3.26416 0.03907,-6.66797c-0.02924,-5.99306 1.32607,-11.84289 2.48828,-17.69653c0.40152,-2.02956 0.78752,-4.06162 1.17187,-6.09448c1.44091,-7.46485 3.25686,-14.70639 5.59034,-21.95069c0.72188,-2.27761 1.35283,-4.52519 1.90185,-6.84814c1.34017,-5.59381 3.12973,-11.05475 4.86719,-16.53516c0.33902,-1.09763 0.67805,-2.19527 1.02734,-3.32617c1.85911,-5.86363 3.91524,-10.86359 7.09766,-16.11133c0.95918,-2.29519 1.87515,-4.60886 2.75,-6.9375c10.38577,-26.72579 25.80603,-51.43765 43.25,-74.0625c0.48291,-0.63003 0.96583,-1.26006 1.46338,-1.90918c5.19131,-6.76234 10.48197,-13.34661 16.27099,-19.61425c1.86451,-2.0381 3.67111,-4.10618 5.47266,-6.19922c4.05157,-4.64213 8.364,-8.99548 12.73047,-13.33985c0.7599,-0.76377 1.5198,-1.52754 2.30273,-2.31445c4.7559,-4.74778 9.64298,-9.26769 14.75977,-13.62305c0.92683,-0.79664 1.85367,-1.59328 2.80859,-2.41406c20.77575,-17.47262 42.81499,-32.20269 66.50391,-45.39844c0.8117,-0.45624 1.62341,-0.91249 2.45972,-1.38257c14.16397,-7.80493 14.16397,-7.80493 19.22778,-7.80493c0,-0.66 0,-1.32 0,-2c41.42721,-17.44816 41.42721,-17.44816 62.57812,-20.40234c2.85347,-0.49838 5.37144,-1.16686 8.1211,-2.03516c5.55349,-1.71918 11.12847,-2.71574 16.86328,-3.625c1.04921,-0.16991 2.09843,-0.33983 3.17944,-0.51489c8.72165,-1.38797 17.45707,-2.65821 26.25806,-3.42261c1.00772,-0.08757 2.01545,-0.17515 3.05371,-0.26538c10.38546,-0.7985 20.73846,-0.92079 31.15039,-0.91992z"/>
  <path id="svg_3" fill="#ffaaaa" d="m-2,1.33333c337.92,0 675.84,0 1024,0c0,337.92 0,675.84 0,1024c-337.92,0 -675.84,0 -1024,0c0,-337.92 0,-675.84 0,-1024zm86,45c-0.82758,0.34547 -1.65516,0.69094 -2.50781,1.04688c-15.98345,7.09233 -30.98083,22.94603 -37.49219,38.95312c-0.85252,1.5634 -1.70682,3.12583 -2.5625,4.6875c-2.40136,4.71644 -3.32958,9.12692 -3.98047,14.35547c-0.45703,2.95703 -0.45703,2.95703 -1.46917,5.81391c-1.63323,5.66694 -1.26722,11.54321 -1.25072,17.39005c-0.0033,1.36073 -0.00747,2.72145 -0.01244,4.08218c-0.01111,3.74565 -0.00979,7.49121 -0.00644,11.23687c0.00146,4.07283 -0.00859,8.14563 -0.01715,12.21845c-0.01516,8.08109 -0.01955,16.16216 -0.02066,24.24327c-0.00183,9.67881 -0.01516,19.3576 -0.02869,29.0364c-0.03213,23.39667 -0.04393,46.79334 -0.0535,70.19003c-0.00467,11.07103 -0.01188,22.14207 -0.01939,33.2131c-0.02567,37.90517 -0.04711,75.81033 -0.05401,113.71551c-0.00044,2.3797 -0.00088,4.75941 -0.00133,7.13911c-0.00044,2.38543 -0.00088,4.77086 -0.00132,7.15629c-0.00088,4.78553 -0.00178,9.57105 -0.00268,14.35658c-0.00022,1.18653 -0.00044,2.37306 -0.00066,3.59555c-0.00726,38.45542 -0.03909,76.91077 -0.08572,115.36616c-0.04922,40.66635 -0.07663,81.33266 -0.07902,121.99905c-0.00034,4.46691 -0.00078,8.93382 -0.00127,13.40073c-0.00011,1.09986 -0.00022,2.19973 -0.00034,3.33292c-0.0023,17.6798 -0.02432,35.35952 -0.05343,53.0393c-0.02878,17.78284 -0.03518,35.56559 -0.01912,53.34846c0.00889,10.55567 0.00127,21.11102 -0.03048,31.66666c-0.01958,7.06394 -0.01707,14.12766 0.00287,21.1916c0.01073,4.01661 0.01239,8.03261 -0.01302,12.04918c-0.18232,30.79734 4.82316,57.34796 26.76066,80.17567c7.58754,7.53779 15.61542,13.4002 25.67188,17.13281c1.9364,0.72128 3.82796,1.56156 5.70312,2.42969c9.78408,3.87989 19.05344,4.87371 29.51231,4.81223c1.36928,0.00283 2.73856,0.00698 4.10783,0.01231c3.74608,0.01079 7.49192,0.00305 11.23798,-0.00784c4.08179,-0.00854 8.16355,0.00039 12.24533,0.00707c7.14844,0.00928 14.29682,0.00744 21.44526,-0.00174c10.6301,-0.01361 21.26014,-0.01003 31.89024,-0.00304c18.98648,0.01192 37.97293,0.00685 56.9594,-0.00528c16.61602,-0.01053 33.23202,-0.01507 49.84804,-0.0137c1.65331,0.00012 1.65331,0.00012 3.34002,0.00025c4.47423,0.00036 8.94847,0.00074 13.4227,0.00117c41.97235,0.00396 83.94468,-0.00875 125.91702,-0.02953c37.28741,-0.01837 74.57479,-0.02418 111.8622,-0.01873c2.39407,0.00035 4.78815,0.0007 7.18222,0.00104c1.77538,0.00026 1.77538,0.00026 3.58662,0.00052c5.95806,0.00085 11.91612,0.00168 17.87418,0.00247c1.17544,0.00016 2.35088,0.00031 3.56195,0.00048c31.15911,0.00399 62.31822,-0.00149 93.47733,-0.00999c3.35297,-0.00091 6.70594,-0.00181 10.05892,-0.00272c2.22426,-0.0006 4.44852,-0.00121 6.67278,-0.00182c15.50451,-0.00422 31.00901,-0.0048 46.51352,-0.0029c19.98171,0.00245 39.96341,-0.00163 59.94511,-0.01721c10.56637,-0.00805 21.13271,-0.01065 31.69908,-0.00536c7.05942,0.00298 14.11881,-0.00132 21.17822,-0.01154c4.02116,-0.00563 8.04225,-0.00814 12.06341,-0.00184c3.66381,0.00568 7.3275,0.00203 10.9913,-0.0088c1.92658,-0.00336 3.85317,0.00297 5.77974,0.0098c24.21092,-0.10905 47.16318,-7.78978 64.77524,-24.75413c13.77888,-14.1205 24.5977,-33.31045 24.60355,-53.41545c0.00276,-1.16626 0.00552,-2.33251 0.00836,-3.53411c-0.00308,-1.91172 -0.00308,-1.91172 -0.00623,-3.86206c0.00135,-1.37855 0.00314,-2.75709 0.00532,-4.13563c0.00473,-3.79968 0.00322,-7.59933 0.00072,-11.399c-0.00163,-4.12949 0.00251,-8.25897 0.00591,-12.38845c0.00516,-7.24141 0.00657,-14.4828 0.00554,-21.7242c-0.00152,-10.76828 0.00263,-21.53655 0.00788,-32.30483c0.00968,-20.34987 0.01248,-40.69974 0.01305,-61.04961c0.00046,-15.71297 0.00252,-31.42594 0.0057,-47.13891c0.0009,-4.51993 0.00179,-9.03987 0.00268,-13.55981c0.00022,-1.12361 0.00044,-2.24722 0.00067,-3.40488c0.00615,-31.61315 0.0101,-63.2263 0.00966,-94.83945c-0.00002,-1.19233 -0.00004,-2.38467 -0.00005,-3.61314c-0.00008,-6.04351 -0.00018,-12.08703 -0.00029,-18.13054c-0.00002,-1.20031 -0.00004,-2.40061 -0.00006,-3.63729c-0.00004,-2.4273 -0.00008,-4.85461 -0.00012,-7.28192c-0.00061,-37.76975 0.00689,-75.53949 0.02057,-113.30923c0.01535,-42.41592 0.02397,-84.83182 0.02304,-127.24774c-0.00008,-4.52119 -0.00013,-9.04239 -0.00016,-13.56358c-0.00001,-1.11327 -0.00002,-2.22653 -0.00003,-3.37353c-0.00003,-17.93047 0.00636,-35.86092 0.01497,-53.79138c0.00846,-18.01462 0.00947,-36.02923 0.00289,-54.04385c-0.0037,-10.70694 -0.00185,-21.41385 0.00794,-32.12079c0.00598,-7.1495 0.00472,-14.29898 -0.00247,-21.44847c-0.0039,-4.07518 -0.00463,-8.1503 0.00346,-12.22547c0.00729,-3.70939 0.00532,-7.41866 -0.00393,-11.12804c-0.00252,-1.95823 0.00473,-3.91646 0.01242,-5.87468c-0.03988,-9.87435 -1.45479,-18.73694 -4.95144,-27.96763c-0.26055,-0.68788 -0.5211,-1.37575 -0.78955,-2.08447c-2.36702,-5.97579 -5.50628,-10.89683 -9.52295,-15.91553c-0.59426,-0.81727 -1.18852,-1.63453 -1.80078,-2.47656c-5.20134,-6.95666 -11.36113,-12.27179 -18.19922,-17.52344c-0.73992,-0.5775 -1.47984,-1.155 -2.24219,-1.75c-15.12916,-10.96151 -33.80827,-14.40709 -52.02429,-14.38143c-1.36285,-0.00165 -2.72569,-0.00374 -4.08854,-0.00622c-3.75146,-0.00556 -7.5029,-0.00489 -11.25437,-0.00322c-4.07904,0.00073 -8.15807,-0.00429 -12.23711,-0.00858c-8.0932,-0.00757 -16.1864,-0.00977 -24.2796,-0.01032c-9.69296,-0.00092 -19.38591,-0.00759 -29.07887,-0.01435c-23.4279,-0.01606 -46.85579,-0.02196 -70.2837,-0.02675c-11.08267,-0.00234 -22.16535,-0.00594 -33.24802,-0.0097c-37.93625,-0.01283 -75.87249,-0.02355 -113.80874,-0.027c-2.38148,-0.00022 -4.76296,-0.00044 -7.14444,-0.00066c-2.38724,-0.00022 -4.77448,-0.00044 -7.16171,-0.00066c-4.78922,-0.00045 -9.57844,-0.00089 -14.36766,-0.00134c-1.78117,-0.00017 -1.78117,-0.00017 -3.59833,-0.00034c-38.50432,-0.00363 -77.00862,-0.01955 -115.51294,-0.04285c-40.70786,-0.0246 -81.41572,-0.03832 -122.12359,-0.03952c-4.46875,-0.00017 -8.9375,-0.00038 -13.40625,-0.00063c-1.10034,-0.00006 -2.20067,-0.00011 -3.33435,-0.00017c-17.70719,-0.00115 -35.41436,-0.01217 -53.12155,-0.02672c-17.79839,-0.01436 -35.59675,-0.0176 -53.39515,-0.00956c-10.5726,0.00446 -21.14513,0.0006 -31.71773,-0.01524c-7.0663,-0.00975 -14.13254,-0.00856 -21.19884,0.00144c-4.02357,0.00539 -8.04698,0.00612 -12.07054,-0.00651c-3.66842,-0.01141 -7.33657,-0.00873 -11.00498,0.00467c-1.92419,0.00354 -3.8484,-0.00748 -5.77257,-0.01929c-13.37051,0.07967 -25.3882,2.68806 -37.52394,8.39495z"/>
  <path id="svg_4" fill="#1E7D46" d="m597.71436,354.66382c2.41717,0.02375 4.83323,0.0205 7.25049,0.01392c10.16604,0.01767 19.98227,0.78849 30.03515,2.32226c1.09635,0.16718 2.1927,0.33435 3.32227,0.50659c2.96023,0.47182 5.91278,0.97537 8.86523,1.49341c0.98291,0.165 1.96582,0.33 2.97852,0.5c1.42409,0.2475 1.42409,0.2475 2.87695,0.5c0.83556,0.14438 1.67111,0.28875 2.53199,0.4375c2.61425,0.60639 4.95032,1.53309 7.42504,2.5625c1.86776,0.48701 3.74355,0.94394 5.625,1.375c10.78436,2.63999 22.08348,6.43065 31.375,12.625c0.67143,4.92379 -0.8002,7.68839 -3,12c-0.18562,1.57781 -0.18562,1.57781 -0.375,3.1875c-0.58485,3.56762 -1.44935,5.78795 -3,9c-2.76037,5.79122 -4.2401,11.57181 -5.625,17.8125c-0.39066,1.58462 -0.78576,3.16816 -1.1875,4.75c-0.26812,1.0725 -0.53625,2.145 -0.8125,3.25c-4.70819,-0.54976 -8.09,-1.88423 -12.25,-4.125c-22.458,-11.68266 -45.56287,-17.25043 -70.80957,-17.2456c-2.56934,-0.00441 -5.137,-0.04095 -7.70605,-0.07862c-14.14435,-0.0969 -26.30355,2.12554 -37.01563,12.10938c-5.42954,5.84208 -7.36312,11.47101 -7.53125,19.40234c0.15905,6.69459 0.15905,6.69459 2.3125,12.9375c2.74595,2.53536 5.58466,4.82924 8.56641,7.08203c2.43359,1.91797 2.43359,1.91797 3.43359,3.91797c2.2358,1.13546 2.2358,1.13546 4.875,2.125c0.8843,0.3532 1.7686,0.70641 2.67969,1.07031c2.49121,0.96098 2.49121,0.96098 5.44531,0.80469c0,0.66 0,1.32 0,2c9.19945,2.77055 18.41298,5.49309 27.62696,8.21485c1.74507,0.51626 1.74507,0.51626 3.52539,1.04296c1.57769,0.46624 1.57769,0.46624 3.18725,0.9419c1.89601,0.57035 3.78208,1.17418 5.6604,1.80029c0,0.66 0,1.32 0,2c1.2852,0.27844 2.5704,0.55688 3.89454,0.84375c17.0016,3.79509 32.46606,9.49574 48.10546,17.15625c0.88986,0.42773 1.77972,0.85546 2.69654,1.29614c4.34303,2.11604 8.36725,4.17708 12.11596,7.26636c0.73219,0.59684 1.46438,1.19367 2.21875,1.8086c0.97454,0.8063 0.97454,0.8063 1.96875,1.6289c0.92813,0.70125 1.85625,1.4025 2.8125,2.125c4.51452,3.86958 7.94221,8.71226 10.1211,14.2461c1.01978,2.51397 2.21024,4.8096 3.5039,7.1914c5.17835,10.39692 6.02449,20.58223 5.875,32.0625c0.00323,1.24524 0.00645,2.49047 0.00977,3.77344c-0.04133,7.12329 -0.63909,13.68518 -2.32227,20.60156c-0.20882,1.04414 -0.41765,2.08828 -0.63281,3.16406c-0.45573,2.27865 -0.91146,4.5573 -1.36719,6.83594c-0.66,0 -1.32,0 -2,0c-0.11214,0.65485 -0.22429,1.30969 -0.33984,1.98438c-2.26894,10.49942 -8.17018,18.53569 -16.66016,25.01562c-0.78375,0.78375 -1.5675,1.5675 -2.375,2.375c-1.99572,1.99573 -3.98487,3.96633 -6.0625,5.875c-0.53496,0.50016 -1.06992,1.00031 -1.62109,1.51563c-2.57052,1.63437 -4.93952,1.73706 -7.94141,2.23437c-2.58349,1.07416 -5.0972,2.18583 -7.625,3.375c-10.54836,4.76203 -20.88472,6.86233 -32.32031,8.19531c-2.96388,0.25168 -2.96388,0.25168 -5.05469,1.42969c-1.51077,0.11805 -3.02638,0.17697 -4.5415,0.20532c-0.94082,0.01995 -1.88165,0.03989 -2.85098,0.06044c-1.52662,0.02507 -1.52662,0.02507 -3.08408,0.05065c-1.04038,0.02078 -2.08077,0.04156 -3.15268,0.06297c-3.33185,0.06552 -6.66378,0.12439 -9.99576,0.18312c-2.25521,0.04318 -4.51042,0.0868 -6.76562,0.13086c-5.53637,0.10722 -11.07283,0.20899 -16.60938,0.30664c0,-0.66 0,-1.32 0,-2c-2.31,0.33 -4.62,0.66 -7,1c-0.33,-0.66 -0.66,-1.32 -1,-2c-2.46898,-0.55751 -4.87723,-0.99496 -7.375,-1.375c-1.54601,-0.25382 -3.09157,-0.51044 -4.63671,-0.76953c-0.8126,-0.13616 -1.62519,-0.27231 -2.46241,-0.4126c-4.25631,-0.74627 -8.4846,-1.61785 -12.71338,-2.50537c-0.78874,-0.16226 -1.57749,-0.32452 -2.39013,-0.4917c-4.25181,-0.89775 -8.32277,-1.97465 -12.42237,-3.4458c0,-0.66 0,-1.32 0,-2c-0.73734,-0.14308 -1.47468,-0.28617 -2.23437,-0.43359c-9.25699,-1.89586 -23.90274,-5.70352 -30.76563,-12.56641c0.38432,-7.54898 2.9247,-14.33858 5.375,-21.4375c0.39961,-1.17627 0.79922,-2.35254 1.21094,-3.56445c1.1332,-3.33435 2.27287,-6.66643 3.41406,-9.99805c0.58473,-1.70741 1.16714,-3.41562 1.7461,-5.125c0.34309,-1.0074 0.34309,-1.0074 0.69311,-2.03515c0.78573,-2.57781 1.21861,-5.17079 1.56079,-7.83985c1.65,0.66 3.3,1.32 5,2c0,0.66 0,1.32 0,2c1.01063,0.26813 2.02125,0.53625 3.0625,0.8125c3.79614,1.07914 7.32011,2.609 10.9375,4.1875c1.99264,0.68837 3.99042,1.36282 6,2c0,0.66 0,1.32 0,2c0.72188,0.12375 1.44375,0.2475 2.1875,0.375c2.76972,0.61549 5.20954,1.50945 7.8125,2.625c0,0.66 0,1.32 0,2c1.45407,0.15469 1.45407,0.15469 2.9375,0.3125c2.89265,0.4071 5.4706,1.11379 8.21875,2.09766c4.7419,1.61526 9.5014,2.72035 14.40625,3.71484c0.79858,0.16887 1.59715,0.33774 2.41993,0.51172c9.67354,2.00251 18.83301,2.51984 28.70507,2.48828c1.78568,0.0058 1.78568,0.0058 3.60743,0.01172c7.94521,-0.00864 15.79349,-0.41216 23.70507,-1.13672c0,-0.66 0,-1.32 0,-2c1.09313,-0.06187 2.18625,-0.12375 3.3125,-0.1875c7.90003,-0.99804 15.71219,-4.51043 20.6875,-10.8125c0.33,-0.99 0.66,-1.98 1,-3c0.66,0 1.32,0 2,0c0.66,-2.31 1.32,-4.62 2,-7c0.66,0 1.32,0 2,0c-0.02772,-11.95024 -0.76764,-20.30044 -9.24389,-29.41211c-8.45569,-7.93961 -20.10472,-11.40373 -30.94361,-14.83789c-1.30179,-0.42336 -2.60323,-0.84784 -3.90429,-1.27344c-6.93898,-2.25952 -13.90606,-4.42115 -20.90821,-6.47656c0,-0.66 0,-1.32 0,-2c-0.8946,-0.01418 -1.78921,-0.02836 -2.71093,-0.04297c-7.28944,-0.28753 -12.60632,-1.08474 -18.94532,-4.70703c-2.36655,-1.26216 -4.50454,-1.95248 -7.09375,-2.625c-5.01754,-1.38061 -9.47746,-3.62027 -14.07055,-6.00952c-3.40035,-1.76014 -6.76197,-3.26917 -10.36695,-4.55298c-6.00764,-2.31667 -10.7864,-6.10743 -15.8125,-10.0625c-0.96679,-0.73863 -1.93359,-1.47726 -2.92968,-2.23828c-11.08276,-8.69501 -17.14937,-18.33352 -21.07032,-31.76172c-0.28101,-0.85207 -0.56203,-1.70414 -0.85156,-2.58203c-5.57379,-19.45616 -3.55085,-42.49768 5.85156,-60.41797c0.44215,-0.88043 0.8843,-1.76086 1.33985,-2.66797c5.15215,-9.90799 11.08947,-18.26994 20.66015,-24.33203c0.66,0 1.32,0 2,0c0,-0.66 0,-1.32 0,-2c0.96938,-0.28875 1.93875,-0.5775 2.9375,-0.875c3.16915,-0.76715 3.16915,-0.76715 4.0625,-3.125c4.46146,-3.20584 9.53104,-4.76731 14.6875,-6.5c1.24234,-0.44279 1.24234,-0.44279 2.50977,-0.89453c14.17712,-4.78544 28.64152,-6.09714 43.51709,-5.94165z"/>
  <path id="svg_5" fill="#1C327A" d="m423,361c17.49,0 34.98,0 53,0c0.06629,33.25757 0.12162,66.51507 0.1532,99.77268c0.00375,3.93727 0.00763,7.87453 0.01159,11.81179c0.00079,0.78375 0.00158,1.56751 0.00239,2.37501c0.01301,12.64662 0.03664,25.29319 0.06428,37.93979c0.02817,13.00202 0.04474,26.00403 0.05081,39.00608c0.00409,8.00595 0.01695,16.01178 0.04148,24.01768c0.01792,6.16623 0.01959,12.33237 0.01557,18.49862c0.00082,2.50958 0.00668,5.01917 0.0183,7.52872c0.14164,32.21971 0.14164,32.21971 -3.35762,45.04963c-0.66,0.66 -1.32,1.32 -2,2c-0.88754,2.01813 -0.88754,2.01813 -1.65625,4.35938c-0.30035,0.86882 -0.6007,1.73765 -0.91016,2.63281c-0.30808,0.91008 -0.61617,1.82015 -0.93359,2.75781c-0.30809,0.89461 -0.61617,1.78922 -0.93359,2.71094c-1.54798,4.50441 -3.06921,9.01751 -4.56641,13.53906c-0.66,0 -1.32,0 -2,0c-0.08766,0.52723 -0.17531,1.05445 -0.26562,1.59766c-4.58989,15.01479 -19.24532,28.15898 -32.41407,35.69531c-19.95683,10.26016 -37.85647,14.04614 -60.00781,13.83203c-6.04313,-0.04125 -12.08625,-0.0825 -18.3125,-0.125c0,-16.5 0,-33 0,-50c16.375,-0.3125 16.375,-0.3125 21.47803,-0.38794c10.56578,-0.22081 19.04015,-1.63411 28.52197,-6.61206c0.66,0 1.32,0 2,0c0.26813,-0.80437 0.53625,-1.60875 0.8125,-2.4375c0.39187,-0.84562 0.78375,-1.69125 1.1875,-2.5625c0.99,-0.33 1.98,-0.66 3,-1c8.00802,-7.65985 11.14258,-18.29254 13,-29c0.17273,-0.92297 0.34547,-1.84594 0.52344,-2.79687c1.90512,-10.65763 2.62345,-21.28177 2.63478,-32.09919c0.00494,-1.02705 0.00987,-2.05411 0.01496,-3.11229c0.01523,-3.40379 0.0237,-6.80756 0.03214,-10.21138c0.00959,-2.45494 0.0196,-4.90988 0.03,-7.36482c0.02137,-5.26599 0.03983,-10.53198 0.05561,-15.798c0.0228,-7.61356 0.05093,-15.2271 0.08032,-22.84065c0.04754,-12.35544 0.09084,-24.71089 0.13144,-37.06635c0.03942,-11.99513 0.08086,-23.99024 0.125,-35.98535c0.00272,-0.74061 0.00544,-1.48122 0.00825,-2.24427c0.01368,-3.71579 0.0274,-7.43158 0.04114,-11.14736c0.11376,-30.7778 0.21982,-61.55563 0.32292,-92.33347z"/>
  <path id="svg_7" fill="#B9BBBE" d="m469,265c8.9964,6.49575 14.11586,14.28423 17,25c1.34354,11.16169 -0.29051,20.93071 -6.6875,30.25c-7.76967,9.40843 -16.97308,13.7224 -29.11719,15.05859c-12.27307,0.32499 -20.60693,-3.86305 -29.50781,-12.12109c-8.47397,-8.7947 -9.1538,-19.17158 -8.96484,-30.75391c0.21816,-5.20236 1.37505,-9.09372 4.27734,-13.43359c0.4241,-0.68062 0.8482,-1.36125 1.28516,-2.0625c11.77118,-17.31249 33.64152,-22.66853 51.71484,-11.9375zm-41,12c-6.43039,8.96406 -9.08602,14.71603 -8,26c0.94082,3.27832 2.2813,6.06389 4,9c0.5775,1.05188 1.155,2.10375 1.75,3.1875c4.44669,5.55836 10.53556,10.37748 17.71875,11.21875c9.2722,0.36328 16.9396,-0.49039 24.53125,-6.40625c7.49832,-8.28949 9.57155,-14.99798 9.33594,-25.90625c-0.41762,-7.524 -3.70086,-12.85293 -9.08594,-17.96875c-11.75572,-9.24288 -29.82053,-11.75015 -40.25,0.875z"/>
  <path id="svg_8" fill="#8898B3" d="m422,360c18.15,0 36.3,0 55,0c1.41805,7.09027 2.24816,12.62176 1.99634,19.61743c-0.02352,0.94139 -0.04703,1.88277 -0.07125,2.85268c-0.05221,2.0881 -0.10891,4.17609 -0.16948,6.26396c-0.17325,6.10504 -0.30004,12.21105 -0.427,18.3172c-0.01436,0.68029 -0.02871,1.36059 -0.04351,2.0615c-0.40848,19.61939 -0.48734,39.24198 -0.586,58.86491c-0.01551,3.08118 -0.03152,6.16235 -0.04765,9.24353c-0.06002,11.5271 -0.11559,23.05421 -0.16886,34.58134c-0.05029,10.8474 -0.10485,21.69478 -0.15967,32.54217c-0.1122,22.2184 -0.21935,44.43683 -0.32292,66.65528c-0.33,0 -0.66,0 -1,0c0,-82.5 0,-165 0,-250c-17.49,0 -34.98,0 -53,0c0.01047,7.43821 0.02095,14.87643 0.03174,22.54004c0.03218,23.86734 0.05438,47.73468 0.07039,71.60204c0.0025,3.71452 0.00509,7.42904 0.00773,11.14356c0.00053,0.73942 0.00105,1.47884 0.00159,2.24066c0.00868,11.93341 0.02443,23.8668 0.04286,35.80019c0.01878,12.26751 0.02982,24.53501 0.03387,36.80253c0.00273,7.5545 0.01131,15.10894 0.02765,22.66342c0.01194,5.81715 0.01306,11.63428 0.01039,17.45145c0.00054,2.36851 0.00445,4.73702 0.01219,7.10552c0.03424,11.03269 -0.07384,21.98125 -1.1276,32.97109c-0.07759,0.82412 -0.15518,1.64825 -0.23513,2.49735c-0.40884,3.74846 -0.82115,6.96419 -2.87568,10.18215c-0.33,-0.33 -0.66,-0.66 -1,-1c0.08645,-2.03773 0.23986,-4.07265 0.41992,-6.10425c0.55713,-7.07088 0.76804,-14.10394 0.84044,-21.19794c0.0215,-2.08918 0.04846,-4.17822 0.07668,-6.26731c0.06886,-5.1699 0.12958,-10.33989 0.18902,-15.50991c0.05087,-4.41047 0.10555,-8.82085 0.16582,-13.2312c0.02655,-2.0591 0.04735,-4.11821 0.06801,-6.17738c0.01672,-1.23607 0.03343,-2.47213 0.05066,-3.74565c0.01879,-1.63876 0.01879,-1.63876 0.03796,-3.31063c0.15149,-2.45573 0.15149,-2.45573 1.15149,-3.45573c0.09442,-1.8972 0.11742,-3.79798 0.11353,-5.69753c-0.00008,-1.23934 -0.00015,-2.47869 -0.00022,-3.75559c-0.00513,-1.38746 -0.01036,-2.77491 -0.01565,-4.16236c-0.00192,-1.45247 -0.00339,-2.90494 -0.00443,-4.35741c-0.00317,-3.14348 -0.00946,-6.28693 -0.01807,-9.4304c-0.01356,-5.014 -0.01942,-10.02799 -0.02413,-15.04201c-0.01207,-11.60166 -0.03377,-23.20329 -0.05623,-34.80494c-0.02528,-13.06372 -0.04628,-26.12743 -0.0573,-39.19117c-0.00079,-0.84019 -0.00158,-1.68039 -0.00239,-2.54605c-0.02187,-25.02404 0.23303,-49.99817 1.06489,-75.01254z"/>
  <path id="svg_9" fill="#8393B0" d="m476,361c0.99,0.495 0.99,0.495 2,1c1.72136,9.96593 0.97739,20.42801 0.68017,30.49202c-0.74486,25.98866 -0.86206,51.98342 -0.99658,77.98064c-0.00534,1.01655 -0.01069,2.0331 -0.0162,3.08045c-0.06624,12.60574 -0.12691,25.2115 -0.1848,37.81728c-0.05017,10.89081 -0.10478,21.7816 -0.15967,32.67238c-0.11239,22.31906 -0.21951,44.63813 -0.32292,66.95723c-0.33,0 -0.66,0 -1,0c0,-82.5 0,-165 0,-250z"/>
  <path id="svg_10" fill="#40B26B" d="m597.71436,354.66382c2.41717,0.02375 4.83323,0.0205 7.25049,0.01392c10.16604,0.01767 19.98227,0.78849 30.03515,2.32226c1.09635,0.16718 2.1927,0.33435 3.32227,0.50659c2.96023,0.47182 5.91278,0.97537 8.86523,1.49341c0.98291,0.165 1.96582,0.33 2.97852,0.5c0.94939,0.165 1.89879,0.33 2.87695,0.5c1.25333,0.21656 1.25333,0.21656 2.53199,0.4375c2.61443,0.60643 4.94992,1.5335 7.42504,2.5625c1.93002,0.50846 3.86826,0.98648 5.8125,1.4375c4.91417,1.19058 9.50236,2.67042 14.1875,4.5625c-0.99,0.66 -1.98,1.32 -3,2c-2.20703,-0.75781 -2.20703,-0.75781 -5,-2c-2.55994,-0.66586 -5.10924,-1.2912 -7.6875,-1.875c-0.74693,-0.17072 -1.49386,-0.34144 -2.26342,-0.51733c-1.57105,-0.35844 -3.14243,-0.71543 -4.71411,-1.07105c-2.20794,-0.50743 -4.40827,-1.03948 -6.6084,-1.57959c-12.45144,-2.99358 -25.00804,-4.55142 -37.72657,-5.95703c0,-0.66 0,-1.32 0,-2c-4.56795,0.07002 -9.13508,0.15849 -13.70239,0.26245c-1.54645,0.0328 -3.09302,0.06096 -4.63965,0.08399c-11.58275,0.17692 -23.60567,0.48403 -34.37719,5.22436c-3.41308,1.48684 -6.02265,1.90908 -9.71827,2.1167c-1.57587,0.09861 -1.57587,0.09861 -3.18359,0.19922c-0.78504,0.03738 -1.57008,0.07477 -2.37891,0.11328c10.28513,-10.28512 36.20253,-9.47741 49.71436,-9.33618z"/>
  <path id="svg_11" fill="#939392" d="m515.6875,142.75c0.94583,-0.00527 1.89166,-0.01053 2.86615,-0.01596c43.53991,-0.18726 43.53991,-0.18726 54.44635,5.26596c0,0.66 0,1.32 0,2c-0.67547,-0.15469 -1.35094,-0.30938 -2.04687,-0.46875c-4.62466,-0.83195 -9.28299,-0.9778 -13.96875,-1.25c-2.98438,-0.28125 -2.98438,-0.28125 -3.98438,-1.28125c-2.54799,-0.24512 -5.07051,-0.42762 -7.625,-0.5625c-0.75531,-0.04246 -1.51062,-0.08492 -2.28882,-0.12866c-7.3659,-0.38194 -14.71205,-0.40544 -22.08618,-0.30884c0,-0.66 0,-1.32 0,-2c-3.62532,0.13848 -7.25016,0.28703 -10.875,0.4375c-1.03254,0.03932 -2.06508,0.07863 -3.12891,0.11914c-0.98613,0.0419 -1.97226,0.08379 -2.98828,0.12695c-0.9112,0.03666 -1.82241,0.07332 -2.76123,0.11109c-2.28141,0.07109 -2.28141,0.07109 -4.24658,1.20532c-2.18703,0.0455 -4.37534,0.03841 -6.5625,0c-2.1455,-0.0376 -4.29217,-0.0467 -6.4375,0c-0.33,0.33 -0.66,0.66 -1,1c-2.78303,0.07252 -5.55281,-0.00375 -8.33594,-0.0625c-2.76962,-0.06559 -2.76962,-0.06559 -5.66406,1.0625c-1.66667,0 -3.33333,0 -5,0c-0.33,0.33 -0.66,0.66 -1,1c-2.33333,0 -4.66667,0 -7,0c-0.76313,0.20625 -1.52625,0.4125 -2.3125,0.625c-0.55687,0.12375 -1.11375,0.2475 -1.6875,0.375c-0.66,-0.66 -1.32,-1.32 -2,-2c21.92131,-3.87759 43.45578,-5.18721 65.6875,-5.25z"/>
  <path id="svg_12" fill="#C8C9CB" d="m477,452c0.99,0.495 0.99,0.495 2,1c-0.00524,1.13019 -0.01047,2.26037 -0.01587,3.4248c-0.01811,4.19694 -0.02959,8.39387 -0.03906,12.59083c-0.00503,1.81576 -0.01185,3.63151 -0.02051,5.44726c-0.01214,2.61134 -0.01781,5.22262 -0.02222,7.83399c-0.00516,0.81055 -0.01032,1.62111 -0.01564,2.45623c-0.00035,3.60589 0.22394,6.77108 1.1133,10.24689c0.08198,2.31649 0.10748,4.63521 0.09766,6.95313c-0.00213,0.99033 -0.00213,0.99033 -0.00429,2.00067c-0.00558,2.09878 -0.01813,4.19745 -0.03087,6.2962c-0.00502,1.42708 -0.00958,2.85417 -0.01367,4.28125c-0.011,3.48962 -0.02825,6.97917 -0.04883,10.46875c-0.66,0 -1.32,0 -2,0c0,20.13 0,40.26 0,61c-0.33,0 -0.66,0 -1,0c0,-44.22 0,-88.44 0,-134z"/>
  <path id="svg_13" fill="#878888" d="m146,463c0.66,0 1.32,0 2,0c-0.14213,1.89611 -0.28887,3.79188 -0.4375,5.6875c-0.08121,1.05574 -0.16242,2.11148 -0.24609,3.19922c-0.31641,3.11328 -0.31641,3.11328 -0.85157,5.52734c-0.73605,4.09471 -0.50485,8.17501 -0.42578,12.32227c0.06048,5.0646 0.06048,5.0646 -1.03906,7.26367c-0.09711,1.7948 -0.13076,3.59321 -0.13281,5.39063c-0.00202,1.09521 -0.00403,2.19043 -0.00611,3.31884c0.0046,1.16838 0.00919,2.33675 0.01392,3.54053c0.00266,1.18771 0.00532,2.37542 0.00806,3.59912c0.04385,8.10617 0.39818,16.07712 1.11694,24.15088c0.17409,2.62481 0.34176,5.24926 0.5,7.875c0.08121,1.31742 0.16242,2.63484 0.24609,3.99219c0.04109,0.66999 0.08218,1.33998 0.12452,2.03027c0.22776,3.70103 0.46013,7.40176 0.69189,11.10254c0.08465,1.35417 0.16929,2.70833 0.25391,4.0625c0.06058,0.96937 0.12117,1.93875 0.18359,2.9375c0.66,0 1.32,0 2,0c0.33,5.28 0.66,10.56 1,16c-2.77598,-2.77598 -2.89467,-5.77475 -3.50781,-9.51172c-0.13071,-0.77929 -0.26142,-1.55858 -0.39609,-2.36148c-0.42444,-2.60236 -0.82685,-5.2072 -1.2211,-7.8143c-0.1364,-0.89931 -0.2728,-1.79862 -0.41333,-2.72519c-4.44533,-30.19275 -7.66986,-69.74832 0.53833,-99.58731z"/>
  <path id="svg_14" fill="#C0C1C2" d="m413,525c2,2 2,2 2.16016,4.13672c-0.03223,0.84176 -0.06446,1.68351 -0.09766,2.55078c-0.10601,2.96357 -0.02294,5.5498 0.46655,8.48608c0.49716,4.03938 0.35035,7.81622 0.03345,11.84986c-0.46783,7.01326 -0.64924,13.98706 -0.625,21.01562c0.00322,0.94575 0.00645,1.8915 0.00977,2.86591c0.01374,2.90671 0.03232,5.81335 0.05273,8.72003c0.08987,12.84259 0.0326,25.56665 -1,38.375c-0.33,0 -0.66,0 -1,0c0,-32.34 0,-64.68 0,-98z"/>
  <path id="svg_15" fill="#A9AAAF" d="m421,554c0.33,0 0.66,0 1,0c0.0466,8.65883 0.08201,17.31762 0.10362,25.97655c0.01039,4.02186 0.02444,8.04363 0.04726,12.06544c0.02193,3.89038 0.03373,7.78067 0.03887,11.67111c0.00366,1.47495 0.01081,2.9499 0.02171,4.42482c0.06242,8.80559 -0.40488,17.21647 -2.21146,25.86208c-0.66,-0.33 -1.32,-0.66 -2,-1c0.06892,-0.83275 0.13785,-1.6655 0.20886,-2.52348c0.64294,-8.26882 0.96684,-16.48385 1.0515,-24.77871c0.0215,-2.08918 0.04846,-4.17822 0.07668,-6.26731c0.06886,-5.1699 0.12958,-10.33989 0.18902,-15.50991c0.05087,-4.41047 0.10555,-8.82085 0.16582,-13.2312c0.02655,-2.0591 0.04735,-4.11821 0.06801,-6.17738c0.01672,-1.23607 0.03343,-2.47213 0.05066,-3.74565c0.01252,-1.09251 0.02505,-2.18501 0.03796,-3.31063c0.15149,-2.45573 0.15149,-2.45573 1.15149,-3.45573z"/>
  <path id="svg_16" fill="#B0AFAF" d="m289,219c-1.49128,3.79599 -3.65733,5.7172 -7,8c-0.99,0 -1.98,0 -3,0c-0.22687,0.61875 -0.45375,1.2375 -0.6875,1.875c-1.70113,2.75421 -3.36626,2.9465 -6.3125,4.125c-0.42926,0.90492 -0.42926,0.90492 -0.86719,1.82813c-1.45558,2.79071 -3.24578,4.03979 -5.75781,5.92187c-4.85394,3.76128 -9.12089,7.83483 -13.375,12.25c-0.95645,0.93942 -1.91451,1.87721 -2.875,2.8125c-2.26177,2.19561 -2.26177,2.19561 -4.125,5.1875c-0.66,0 -1.32,0 -2,0c-0.22687,0.72187 -0.45375,1.44375 -0.6875,2.1875c-1.57585,3.37682 -3.52127,5.37017 -6.3125,7.8125c-0.66,0 -1.32,0 -2,0c-0.2475,0.72187 -0.495,1.44375 -0.75,2.1875c-1.35984,3.05963 -3.07918,5.27987 -5.25,7.8125c-0.99,-0.33 -1.98,-0.66 -3,-1c9.08748,-11.45115 18.94331,-22.01784 29.25,-32.375c0.97369,-0.98069 0.97369,-0.98069 1.96704,-1.9812c6.33982,-6.3189 13.08968,-12.11398 19.97046,-17.8313c0.98355,-0.81855 1.96711,-1.63711 2.98047,-2.48047c0.93457,-0.76957 1.86914,-1.53914 2.83203,-2.33203c0.90363,-0.75926 1.80727,-1.51852 2.73828,-2.30078c2.26172,-1.69922 2.26172,-1.69922 4.26172,-1.69922z"/>
  <path id="svg_17" fill="#C1C0BF" d="m175,361c0.33,0 0.66,0 1,0c0.28201,4.67037 -0.4117,7.43499 -2.5625,11.5625c-4.05466,8.36751 -6.78531,17.09779 -9.62354,25.93701c-0.72931,2.24043 -1.48575,4.4678 -2.26318,6.6919c-2.53817,7.30964 -4.43853,14.36487 -5.77734,21.98047c-0.78979,2.8879 -1.45418,4.00859 -3.77344,5.82812c0.8891,-6.76764 1.78902,-13.30259 4.21875,-19.70703c0.8823,-2.58956 1.49784,-5.21781 2.14746,-7.87329c1.32214,-5.04766 2.93228,-10.00943 4.50879,-14.98218c0.33902,-1.09764 0.67805,-2.19527 1.02734,-3.32617c1.85617,-5.85433 3.88576,-10.887 7.09766,-16.11133c0.79122,-1.79489 1.54753,-3.60606 2.25,-5.4375c0.50273,-1.29744 0.50273,-1.29744 1.01562,-2.62109c0.24235,-0.64067 0.48469,-1.28133 0.73438,-1.94141z"/>
  <path id="svg_19" fill="#76AD8C" d="m683,370c6.14436,0.79282 11.89064,3.59376 17,7c0.67143,4.92379 -0.8002,7.68839 -3,12c-0.12375,1.05187 -0.2475,2.10375 -0.375,3.1875c-0.58486,3.56762 -1.44935,5.78795 -3,9c-2.76038,5.79122 -4.2401,11.57181 -5.625,17.8125c-0.39066,1.58462 -0.78576,3.16815 -1.1875,4.75c-0.26812,1.0725 -0.53625,2.145 -0.8125,3.25c-5.53846,-0.61538 -5.53846,-0.61538 -7.875,-2.5625c-0.37125,-0.47438 -0.7425,-0.94875 -1.125,-1.4375c2.31,0 4.62,0 7,0c0.27844,-0.97582 0.55688,-1.95164 0.84375,-2.95703c0.38534,-1.34768 0.77076,-2.69533 1.15625,-4.04297c0.19852,-0.69529 0.39703,-1.39058 0.60156,-2.10693c0.62864,-2.19475 1.26312,-4.38775 1.89844,-6.58057c0.2127,-0.74572 0.42539,-1.49145 0.64453,-2.25977c1.0355,-3.5607 2.1791,-6.73862 3.85547,-10.05273c0.03999,-1.9996 0.04347,-4.00047 0,-6c0.33,-0.66 0.66,-1.32 1,-2c0.66,0 1.32,0 2,0c-0.33,-0.99 -0.66,-1.98 -1,-3c0.92204,-2.36523 1.91699,-4.70402 3,-7c-0.7425,0.06187 -1.485,0.12375 -2.25,0.1875c-3.27834,-0.22352 -4.21317,-1.2056 -6.75,-3.1875c-2.64935,-0.71433 -2.64935,-0.71433 -5,-1c-0.33,-0.99 -0.66,-1.98 -1,-3z"/>
  <path id="svg_20" fill="#B0AFAE" d="m409,159c-0.66,0 -1.32,0 -2,0c0,0.66 0,1.32 0,2c-3.75039,1.29147 -7.50406,2.57287 -11.26099,3.84521c-1.90243,0.6466 -3.80219,1.30104 -5.7019,1.95557c-1.20205,0.40606 -2.4041,0.81211 -3.64258,1.23047c-1.10497,0.37705 -2.20994,0.7541 -3.34839,1.14258c-2.85446,0.77418 -5.1107,0.99814 -8.04614,0.82617c0,0.66 0,1.32 0,2c-1.12277,0.4473 -2.24555,0.89461 -3.40234,1.35547c-1.51227,0.60933 -3.02395,1.2201 -4.53516,1.83203c-0.77819,0.31445 -1.55638,0.6289 -2.35815,0.95288c-4.92427,2.02516 -9.50039,4.24278 -13.94263,7.20728c-1.76172,0.65234 -1.76172,0.65234 -3.99219,-0.22657c-0.58394,-0.36996 -1.16789,-0.73992 -1.76953,-1.12109c2.28982,-1.00441 4.58166,-2.00368 6.875,-3c0.65098,-0.28617 1.30195,-0.57234 1.97266,-0.86719c4.92578,-2.13281 4.92578,-2.13281 7.15234,-2.13281c0,-0.66 0,-1.32 0,-2c10.88493,-4.52736 21.8367,-8.76657 33,-12.5625c1.03189,-0.35836 2.06379,-0.71672 3.12695,-1.08594c0.96873,-0.32355 1.93746,-0.64711 2.93555,-0.98047c0.85723,-0.28947 1.71445,-0.57895 2.59766,-0.87719c2.51361,-0.53058 3.93701,-0.32594 6.33984,0.5061z"/>
  <path id="svg_21" fill="#959494" d="m874,446c2.97571,2.97571 2.93529,6.54496 3.5,10.5625c0.12673,0.89421 0.25346,1.78841 0.38403,2.70972c2.46158,18.11655 3.29778,36.08634 3.30347,54.35278c0.001,0.86042 0.00199,1.72084 0.00302,2.60733c-0.00032,2.47733 -0.00938,4.95444 -0.02255,7.43173c-0.00121,0.73761 -0.00242,1.47522 -0.00366,2.23519c-0.04012,4.47167 -0.44139,8.70119 -1.16431,13.10075c-0.33,0 -0.66,0 -1,0c-0.19706,-1.56132 -0.3822,-3.12415 -0.5625,-4.6875c-0.10441,-0.87012 -0.20883,-1.74023 -0.31641,-2.63672c-0.12109,-2.67578 -0.12109,-2.67578 0.36304,-5.00635c0.532,-2.75292 0.64523,-5.25478 0.64868,-8.05615c0.00129,-1.02158 0.00258,-2.04316 0.00391,-3.0957c-0.00387,-1.05768 -0.00774,-2.11535 -0.01172,-3.20508c0.00387,-1.03834 0.00773,-2.07668 0.01172,-3.14648c-0.00717,-5.71722 -0.2436,-11.31202 -0.92236,-16.99024c-0.21504,-2.18269 -0.24638,-4.29635 -0.21436,-6.48828c0.12307,-3.47875 0.12307,-3.47875 -0.47266,-6c-0.6152,-3.13527 -0.78981,-6.18519 -0.96484,-9.375c-0.33479,-5.23034 -0.99148,-10.14389 -2.25781,-15.22656c-0.33861,-2.31814 -0.01591,-3.87213 0.69531,-6.08594c-0.66,-0.33 -1.32,-0.66 -2,-1c0.33,-0.66 0.66,-1.32 1,-2z"/>
  <path id="svg_22" fill="#9CAEA3" d="m592,405c0,0.33 0,0.66 0,1c-1.7151,0.18176 -1.7151,0.18176 -3.46484,0.36719c-1.49094,0.16878 -2.98183,0.33808 -4.47266,0.50781c-1.13212,0.11795 -1.13212,0.11795 -2.28711,0.23828c-1.93458,0.22556 -3.85715,0.54931 -5.77539,0.88672c-0.33,0.66 -0.66,1.32 -1,2c-1.29772,0.40498 -2.61477,0.74867 -3.9375,1.0625c-7.29612,2.29974 -13.23231,7.52411 -16.82813,14.23047c-1.33956,4.02294 -1.68113,7.57941 -1.60937,11.76953c-0.0116,0.68127 -0.0232,1.36254 -0.03516,2.06445c0.02724,4.72619 1.19885,7.76197 3.41016,11.87305c-0.33,0.66 -0.66,1.32 -1,2c-2.42448,-2.03343 -3.83092,-3.4364 -4.75,-6.5c-0.7377,-10.32774 -1.05517,-19.0315 5.375,-27.6875c9.59482,-10.5543 22.56576,-14.26199 36.375,-13.8125z"/>
  <path id="svg_23" fill="#9E9F9E" d="m563,877c-5.62723,3.24648 -12.02368,3.2423 -18.375,3.5625c-0.82983,0.04246 -1.65967,0.08492 -2.51465,0.12866c-13.6888,0.6055 -27.41192,0.39181 -41.11035,0.30884c0,-0.66 0,-1.32 0,-2c0.85231,0.00524 1.70462,0.01047 2.58276,0.01587c3.17757,0.01709 6.35512,0.02961 9.53272,0.03906c1.3724,0.00501 2.7448,0.01183 4.11719,0.02051c1.97841,0.0122 3.95686,0.01728 5.9353,0.02222c1.78313,0.00785 1.78313,0.00785 3.60229,0.01587c2.88491,-0.10141 5.42291,-0.48798 8.22974,-1.11353c1.70783,-0.04153 3.41718,-0.04178 5.125,0c3.08004,0.07489 4.90964,-0.01155 7.875,-1c1.35349,-0.04288 2.70894,-0.04048 4.0625,0c10.9375,0 10.9375,0 10.9375,0z"/>
  <path id="svg_24" fill="#C3C2C1" d="m216,291c1,2 1,2 0.3125,4.375c-1.42777,2.85554 -3.06543,4.37793 -5.3125,6.625c-1.08971,1.73864 -2.07211,3.51753 -3.05859,5.31641c-1.15112,2.05863 -2.38212,3.91167 -3.94141,5.68359c-0.66,0 -1.32,0 -2,0c0,0.99 0,1.98 0,3c-0.66,0 -1.32,0 -2,0c-0.0825,0.9075 -0.165,1.815 -0.25,2.75c-0.87313,3.78358 -2.02582,4.60594 -4.75,7.25c-1.18157,2.28867 -2.07296,4.58969 -3,7c-0.66,0 -1.32,0 -2,0c1.56459,-5.68773 4.3473,-10.36979 7.375,-15.375c0.52368,-0.87108 1.04736,-1.74217 1.58691,-2.63965c5.14533,-8.41209 10.94129,-16.24544 17.03809,-23.98535z"/>
  <path id="svg_25" fill="#919191" d="m440,872c1.13889,0.21656 1.13889,0.21656 2.30078,0.4375c0.99387,0.18563 1.98774,0.37125 3.01172,0.5625c0.98613,0.18562 1.97227,0.37125 2.98828,0.5625c2.73704,0.5175 2.73704,0.5175 5.69922,0.4375c0,0.66 0,1.32 0,2c0.495,-0.18562 0.99,-0.37125 1.5,-0.5625c3.65107,-0.63894 6.83264,0.03014 10.5,0.5625c0.66,0 1.32,0 2,0c0,0.66 0,1.32 0,2c1.76344,-0.27844 1.76344,-0.27844 3.5625,-0.5625c4.01904,-0.49887 7.42822,-0.11704 11.4375,0.5625c3.66332,0.37229 7.33108,0.68817 11,1c0,0.33 0,0.66 0,1c-18.3875,0.58545 -37.32092,-0.53344 -55,-6c0.33,-0.66 0.66,-1.32 1,-2z"/>
  <path id="svg_26" fill="#C5C3CC" d="m456,683c0.66,0.66 1.32,1.32 2,2c-0.7425,0.84563 -1.485,1.69125 -2.25,2.5625c-1.89498,2.25162 -3.37912,4.4612 -4.75,7.0625c-2.08405,3.51683 -3.69284,5.04496 -7,7.375c-1.33762,0.97331 -2.67063,1.95296 -4,2.9375c-0.68836,0.50918 -1.37672,1.01836 -2.08594,1.54297c-2.12907,1.61886 -2.12907,1.61886 -4.53906,4.26953c-2.67611,2.53526 -4.83709,3.34495 -8.375,4.25c-0.33,-0.66 -0.66,-1.32 -1,-2c0.60586,-0.32871 1.21172,-0.65742 1.83594,-0.99609c12.21477,-6.93423 22.78245,-17.00879 30.16406,-29.00391z"/>
  <path id="svg_27" fill="#C0C2C0" d="m638,651c-4.455,0.495 -4.455,0.495 -9,1c0,0.66 0,1.32 0,2c-4.31772,1.06379 -8.50742,1.12942 -12.92578,1.09766c-1.12139,-0.00213 -1.12139,-0.00213 -2.26543,-0.00429c-2.3738,-0.00557 -4.74751,-0.01812 -7.12129,-0.03087c-1.61523,-0.00502 -3.23047,-0.00958 -4.8457,-0.01367c-3.94731,-0.01099 -7.89454,-0.02824 -11.8418,-0.04883c0,-0.66 0,-1.32 0,-2c1.01312,-0.01982 2.02625,-0.03964 3.07007,-0.06006c3.79662,-0.07668 7.59288,-0.16529 11.38916,-0.25732c1.63599,-0.03804 3.27207,-0.07293 4.9082,-0.10449c8.70005,-0.16992 20.69114,-3.56349 28.63257,-1.57813z"/>
  <path id="svg_28" fill="#A0A09F" d="m521,144c4.08332,-0.0295 8.16661,-0.04697 12.25,-0.0625c1.7093,-0.01257 1.7093,-0.01257 3.45313,-0.02539c9.72266,-0.02762 19.32654,0.43263 28.92187,2.08789c0.98227,0.165 1.96453,0.33 2.97656,0.5c2.39844,0.5 2.39844,0.5 4.39844,1.5c0,0.66 0,1.32 0,2c-0.67547,-0.15469 -1.35094,-0.30938 -2.04687,-0.46875c-4.62466,-0.83195 -9.28299,-0.9778 -13.96875,-1.25c-2.98438,-0.28125 -2.98438,-0.28125 -3.98438,-1.28125c-2.54799,-0.24512 -5.07051,-0.42762 -7.625,-0.5625c-0.75531,-0.04246 -1.51062,-0.08492 -2.28882,-0.12866c-7.3659,-0.38194 -14.71205,-0.40544 -22.08618,-0.30884c0,-0.66 0,-1.32 0,-2z"/>
  <path id="svg_29" fill="#898988" d="m875,567c0.33,0 0.66,0 1,0c0.18897,6.66807 -0.44254,12.71814 -1.75,19.25c-0.17757,0.91225 -0.35514,1.82451 -0.53809,2.7644c-1.44096,7.16494 -3.30304,14.07932 -5.71191,20.9856c-0.82638,-2.89234 -1,-4.88742 -1,-8c0.66,0 1.32,0 2,0c-0.18562,-0.7425 -0.37125,-1.485 -0.5625,-2.25c-0.42953,-2.69991 -0.28873,-4.19631 0.5625,-6.75c0.66,0 1.32,0 2,0c-0.0116,-0.67547 -0.0232,-1.35094 -0.03516,-2.04687c-0.01353,-1.33805 -0.01353,-1.33805 -0.02734,-2.70313c-0.0116,-0.88172 -0.0232,-1.76344 -0.03516,-2.67187c0.0894,-2.36001 0.42853,-4.32312 1.09766,-6.57813c0.66,0 1.32,0 2,0c-0.20625,-0.68062 -0.4125,-1.36125 -0.625,-2.0625c-0.47564,-3.72583 0.44831,-6.40743 1.625,-9.9375z"/>
  <path id="svg_30" fill="#2FAA5F" d="m646,361c12.82485,0.43921 25.13799,3.0575 37,8c-0.99,0.66 -1.98,1.32 -3,2c-2.18359,-0.75391 -2.18359,-0.75391 -5,-2c-2.6847,-0.68433 -5.36083,-1.33022 -8.0625,-1.9375c-1.51057,-0.34697 -3.02099,-0.69463 -4.53125,-1.04297c-0.7425,-0.17064 -1.485,-0.34128 -2.25,-0.51709c-4.73447,-1.10321 -9.4451,-2.30423 -14.15625,-3.50244c0,-0.33 0,-0.66 0,-1z"/>
  <path id="svg_31" fill="#64AA7E" d="m589,355c0,0.33 0,0.66 0,1c-1.75764,0.25523 -1.75764,0.25523 -3.55078,0.51563c-7.99424,1.21506 -15.31334,2.56761 -22.83594,5.63281c-4.7422,1.54529 -9.6569,1.67856 -14.61328,1.85156c5.59212,-5.59212 16.69984,-6.45676 24.3125,-7.75c1.10988,-0.1913 1.10988,-0.1913 2.24219,-0.38647c4.86978,-0.77588 9.515,-0.97495 14.44531,-0.86353z"/>
  <path id="svg_32" fill="#101159" d="m351,707c0.33,0 0.66,0 1,0c0,5.28 0,10.56 0,16c13.365,0.495 13.365,0.495 27,1c0,0.33 0,0.66 0,1c-9.57,0 -19.14,0 -29,0c-0.02062,-2.78438 -0.04125,-5.56875 -0.0625,-8.4375c-0.0091,-0.87842 -0.01821,-1.75683 -0.02759,-2.66187c-0.00714,-1.96709 0.03977,-3.93417 0.09009,-5.90063c0.33,-0.33 0.66,-0.66 1,-1z"/>
  <path id="svg_33" fill="#CACCCF" d="m359.85547,725.80469c0.66164,0.00283 1.32327,0.00566 2.00496,0.00858c2.10921,0.01117 4.21799,0.03627 6.32707,0.06173c1.43164,0.01004 2.86328,0.01916 4.29492,0.02735c3.506,0.02202 7.01175,0.05654 10.51758,0.09765c-0.33,0.66 -0.66,1.32 -1,2c-10.81453,0.8604 -21.18845,1.02293 -32,0c3.6793,-2.45286 5.47378,-2.23229 9.85547,-2.19531z"/>
  <path id="svg_34" fill="#11155A" d="m394,675c-5.55863,2.2848 -10.53051,3.61366 -16.5,4.1875c-0.76957,0.07968 -1.53914,0.15936 -2.33203,0.24146c-20.42062,1.94472 -20.42062,1.94472 -25.16797,-0.42896c0,-0.66 0,-1.32 0,-2c0.81042,0.01571 1.62083,0.03142 2.45581,0.04761c3.07338,0.05183 6.14653,0.08908 9.22022,0.11718c1.95775,0.0221 3.9153,0.06027 5.8728,0.09888c7.70534,0.05882 14.51215,-0.65959 21.95044,-2.71167c2.50073,-0.552 2.50073,-0.552 4.50073,0.448z"/>
  <path id="svg_35" fill="#578D71" d="m571,651c17.82,0.33 35.64,0.66 54,1c0,0.33 0,0.66 0,1c-15.51,0.33 -31.02,0.66 -47,1c0,-0.66 0,-1.32 0,-2c-2.31,0.33 -4.62,0.66 -7,1c0,-0.66 0,-1.32 0,-2z"/>
  <path id="svg_36" fill="#A6A6B4" d="m422,714c0.66,0.33 1.32,0.66 2,1c0,0.66 0,1.32 0,2c-6.91296,2.83886 -13.58422,5.41266 -20.97656,6.64063c-2.21742,0.34322 -2.21742,0.34322 -5.02344,1.35937c0,-0.66 0,-1.32 0,-2c0.65597,-0.23711 1.31194,-0.47421 1.98779,-0.71851c2.96286,-1.07174 5.92504,-2.14534 8.88721,-3.21899c1.03254,-0.37318 2.06508,-0.74637 3.12891,-1.13086c0.98613,-0.35771 1.97226,-0.71543 2.98828,-1.08398c0.9112,-0.32992 1.82241,-0.65984 2.76123,-0.99976c2.23729,-0.80052 2.23729,-0.80052 4.24658,-1.8479z"/>
  <path id="svg_37" fill="#888788" d="m852,649c0.66,0 1.32,0 2,0c-0.82187,4.38332 -1.90154,8.6794 -3,13c-0.66,0 -1.32,0 -2,0c-0.64845,2.40854 -1.09715,4.70782 -1.4375,7.1875c-0.18562,0.92813 -0.37125,1.85625 -0.5625,2.8125c-0.66,0.33 -1.32,0.66 -2,1c-0.33,0.99 -0.66,1.98 -1,3c-0.66,0 -1.32,0 -2,0c-0.33,1.32 -0.66,2.64 -1,4c-1.24546,-2.49093 -0.77676,-3.41081 0,-6c0.66,0 1.32,0 2,0c1.485,-5.445 1.485,-5.445 3,-11c0.66,0 1.32,0 2,0c-0.06187,-0.72188 -0.12375,-1.44375 -0.1875,-2.1875c0.22498,-3.37467 1.38178,-4.99558 3.1875,-7.8125c0.69579,-2.19131 0.69579,-2.19131 1,-4z"/>
  <path id="svg_38" fill="#BBBAB9" d="m343,183c0.66,0.33 1.32,0.66 2,1c-3.02555,3.35362 -6.01799,5.26534 -10.0625,7.25c-1.04285,0.52078 -2.0857,1.04156 -3.16016,1.57813c-2.77734,1.17187 -2.77734,1.17187 -5.77734,1.17187c-0.33,0.99 -0.66,1.98 -1,3c-1.98,0.33 -3.96,0.66 -6,1c3.77595,-4.1427 8.74285,-6.50142 13.5625,-9.25c0.97131,-0.56719 1.94262,-1.13438 2.94336,-1.71875c0.92748,-0.53109 1.85496,-1.06219 2.81055,-1.60937c0.85021,-0.48888 1.70043,-0.97776 2.57641,-1.48145c0.69537,-0.31034 1.39074,-0.62068 2.10718,-0.94043z"/>
  <path id="svg_39" fill="#7D7D7D" d="m880,493c0.33,0 0.66,0 1,0c0.02482,5.42602 0.04292,10.85201 0.05493,16.27808c0.00501,1.84375 0.01182,3.6875 0.02051,5.53125c0.0122,2.65862 0.01782,5.31718 0.02222,7.97583c0.00516,0.81694 0.01032,1.63389 0.01564,2.4756c0.00045,4.6878 -0.33229,9.11532 -1.1133,13.73924c-0.33,0 -0.66,0 -1,0c-0.19706,-1.56132 -0.3822,-3.12415 -0.5625,-4.6875c-0.10441,-0.87012 -0.20883,-1.74023 -0.31641,-2.63672c-0.12109,-2.67578 -0.12109,-2.67578 0.35157,-4.88867c0.63857,-3.37496 0.74484,-6.62301 0.84375,-10.05664c0.02078,-0.681 0.04156,-1.36201 0.06297,-2.06365c0.065,-2.15968 0.12415,-4.31947 0.18312,-6.47932c0.04323,-1.47071 0.08685,-2.94142 0.13086,-4.41211c0.10665,-3.59168 0.20805,-7.18348 0.30664,-10.77539z"/>
  <path id="svg_40" fill="#676768" d="m865,610c0.66,0 1.32,0 2,0c0.61966,6.97622 -1.62266,12.83621 -3.875,19.375c-0.3648,1.10473 -0.72961,2.20945 -1.10547,3.34766c-2.75512,8.14513 -2.75512,8.14513 -5.01953,9.27734c2.73468,-10.24593 2.73468,-10.24593 4.1875,-14.375c0.9357,-2.56506 0.9357,-2.56506 0.8125,-5.125c0,-3.17028 0.80505,-5.57901 2,-8.5c0.66,-0.33 1.32,-0.66 2,-1c-0.33,-0.99 -0.66,-1.98 -1,-3z"/>
  <path id="svg_42" fill="#A1A0A0" d="m336,836c5.75,0.875 5.75,0.875 8,2c0,0.66 0,1.32 0,2c0.825,0.0825 1.65,0.165 2.5,0.25c4.26754,0.91447 7.69237,2.67223 11.5,4.75c0,0.66 0,1.32 0,2c-5.19229,-0.5723 -9.31037,-3.09822 -13.8125,-5.5625c-0.78826,-0.42475 -1.57652,-0.84949 -2.38867,-1.28711c-1.93617,-1.04436 -3.86888,-2.0946 -5.79883,-3.15039c0,-0.33 0,-0.66 0,-1z"/>
  <path id="svg_43" fill="#BDBCBC" d="m717,816c0,0.99 0,1.98 0,3c-1.37354,1.21094 -1.37354,1.21094 -3.28906,2.375c-0.69481,0.42797 -1.38961,0.85594 -2.10547,1.29688c-0.73606,0.43828 -1.47211,0.87656 -2.23047,1.32812c-0.71285,0.43828 -1.4257,0.87656 -2.16016,1.32813c-3.98348,2.42663 -8.00504,4.65329 -12.21484,6.67187c1,-3 1,-3 2.64453,-4.10547c1.07315,-0.5356 1.07315,-0.5356 2.16797,-1.08203c6.02161,-3.1662 11.57243,-6.98361 17.1875,-10.8125z"/>
  <path id="svg_44" fill="#9C9D9C" d="m146,463c0.66,0 1.32,0 2,0c-0.14213,1.89611 -0.28887,3.79188 -0.4375,5.6875c-0.08121,1.05574 -0.16242,2.11148 -0.24609,3.19922c-0.31641,3.11328 -0.31641,3.11328 -0.85547,5.52734c-0.72973,4.09387 -0.46436,8.17798 -0.33399,12.32227c0.02969,1.75481 -0.04189,3.51066 -0.12695,5.26367c-0.66,0.66 -1.32,1.32 -2,2c-0.20924,-11.55464 -0.11421,-22.59838 2,-34z"/>
  <path id="svg_45" fill="#A5A4A3" d="m450,149c-0.33,0.66 -0.66,1.32 -1,2c-2.47017,0.6426 -4.87022,1.16874 -7.375,1.625c-0.68578,0.13406 -1.37156,0.26812 -2.07813,0.40625c-2.89587,0.55213 -5.59248,0.96875 -8.54687,0.96875c0.33,-0.99 0.66,-1.98 1,-3c5.66343,-2.36397 11.98021,-2.1911 18,-2z"/>
  <path id="svg_46" fill="#9DB1A6" d="m711,557c0.33,0 0.66,0 1,0c0.22927,3.62399 0.42948,7.24905 0.625,10.875c0.06445,1.0132 0.12891,2.02641 0.19531,3.07031c0.33241,6.48191 0.33633,12.84884 -1.82031,19.05469c-0.99,0.495 -0.99,0.495 -2,1c-0.125,-7.75 -0.125,-7.75 1,-10c0.15307,-1.81171 0.24947,-3.62838 0.31641,-5.44531c0.06284,-1.61455 0.06284,-1.61455 0.12695,-3.26172c0.03932,-1.12793 0.07863,-2.25586 0.11914,-3.41797c0.04318,-1.13566 0.08637,-2.27133 0.13086,-3.44141c0.1063,-2.81107 0.20833,-5.62223 0.30664,-8.43359z"/>
  <path id="svg_47" fill="#CFCFCE" d="m175,361c0.33,0 0.66,0 1,0c0.34624,4.99032 -0.67392,8.10242 -2.875,12.5625c-1.84169,3.77681 -3.61952,7.51301 -5.125,11.4375c-1.34536,-4.03608 -0.22522,-5.79912 1.25,-9.75c0.23163,-0.626 0.46326,-1.252 0.7019,-1.89697c1.5588,-4.17598 3.21119,-8.29249 5.0481,-12.35303z"/>
  <path id="svg_48" fill="#616262" d="m779,765c0.33,0.66 0.66,1.32 1,2c-2.03447,4.37007 -4.94401,6.86175 -8.6875,9.8125c-1.4908,1.18529 -1.4908,1.18529 -3.01172,2.39453c-1.13889,0.88752 -1.13889,0.88752 -2.30078,1.79297c-0.66,-0.33 -1.32,-0.66 -2,-1c0.84885,-0.70576 0.84885,-0.70576 1.71484,-1.42578c0.73348,-0.62262 1.46696,-1.24524 2.22266,-1.88672c0.7309,-0.61488 1.4618,-1.22977 2.21484,-1.86328c2.08586,-1.78398 2.08586,-1.78398 2.84766,-4.82422c1.87618,-1.84499 3.92738,-3.36836 6,-5z"/>
  <path id="svg_49" fill="#C4CEC9" d="m638,651c-4.455,0.495 -4.455,0.495 -9,1c0,0.66 0,1.32 0,2c-3.67387,0.85298 -7.04474,1.10789 -10.8125,1.0625c-1.46373,-0.01354 -1.46373,-0.01354 -2.95703,-0.02734c-1.10408,-0.01741 -1.10408,-0.01741 -2.23047,-0.03516c0,-0.66 0,-1.32 0,-2c1.14275,-0.07348 1.14275,-0.07348 2.30859,-0.14844c5.75201,-0.4165 11.18821,-1.00787 16.75391,-2.54687c1.9375,-0.30469 1.9375,-0.30469 5.9375,0.69531z"/>
  <path id="svg_50" fill="#37855C" d="m527,497c3.29593,1.03586 4.96136,1.95933 7.375,4.5c3.23392,3.07993 5.32932,3.57348 9.625,4.5c0,0.99 0,1.98 0,3c-5.93858,-2.10724 -12.27844,-4.65241 -16.0625,-9.8125c-0.30937,-0.72188 -0.61875,-1.44375 -0.9375,-2.1875z"/>
  <path id="svg_51" fill="#7C9F8A" d="m588,471c6.34641,1.38049 12.64997,2.87264 18.9375,4.5c0.84885,0.2127 1.6977,0.42539 2.57227,0.64453c0.81017,0.21012 1.62035,0.42024 2.45507,0.63672c0.72824,0.18627 1.45648,0.37254 2.20679,0.56445c1.82837,0.6543 1.82837,0.6543 3.82837,2.6543c-6.20041,-0.71072 -11.84327,-2.36879 -17.77148,-4.27148c-4.21328,-1.30077 -7.7612,-2.00376 -12.22852,-1.72852c0,-0.99 0,-1.98 0,-3z"/>
  <path id="svg_52" fill="#B4B4B3" d="m168,377c1.86699,3.73399 0.02783,8.11469 -1,12c-1.20847,3.39107 -2.55506,6.7033 -4,10c-0.66,0 -1.32,0 -2,0c4.61538,-19.61538 4.61538,-19.61538 7,-22z"/>
  <path id="svg_53" fill="#C5C4C4" d="m236,267c0.99,0.33 1.98,0.66 3,1c-1.375,1.5 -1.375,1.5 -3,3c-0.66,0 -1.32,0 -2,0c-0.2475,0.72187 -0.495,1.44375 -0.75,2.1875c-1.35984,3.05963 -3.07918,5.27987 -5.25,7.8125c-0.99,-0.33 -1.98,-0.66 -3,-1c1.45699,-1.79276 2.91564,-3.58417 4.375,-5.375c1.21816,-1.4966 1.21816,-1.4966 2.46094,-3.02344c2.16406,-2.60156 2.16406,-2.60156 4.16406,-4.60156z"/>
  <path id="svg_54" fill="#A1A1A1" d="m167,641c2.16758,2.16758 2.74516,3.59883 3.8125,6.4375c2.17645,5.62591 4.64975,11.09177 7.1875,16.5625c-0.66,0.33 -1.32,0.66 -2,1c-9,-17.47573 -9,-17.47573 -9,-24z"/>
  <path id="svg_55" fill="#88A694" d="m586.75,404.9375c0.98484,0.00902 1.96969,0.01805 2.98438,0.02734c1.12148,0.01741 1.12148,0.01741 2.26562,0.03516c0,0.33 0,0.66 0,1c-1.1434,0.12117 -2.2868,0.24234 -3.46484,0.36719c-1.49094,0.16878 -2.98183,0.33808 -4.47266,0.50781c-1.13212,0.11795 -1.13212,0.11795 -2.28711,0.23828c-1.93458,0.22556 -3.85715,0.54931 -5.77539,0.88672c-0.33,0.66 -0.66,1.32 -1,2c-6.32432,2.22523 -6.32432,2.22523 -10,1c1.91516,-0.81605 3.83219,-1.62771 5.75,-2.4375c1.06734,-0.45246 2.13469,-0.90492 3.23437,-1.37109c4.49517,-1.77594 7.92058,-2.31159 12.76563,-2.25391z"/>
  <path id="svg_56" fill="#8F8F8F" d="m563,877c-6.50807,3.75465 -13.72814,3.11645 -21,3c1.15234,-1.49219 1.15234,-1.49219 3,-3c2.62891,-0.25781 2.62891,-0.25781 5.5625,-0.125c4.6302,0.18447 7.91388,-0.94638 12.4375,0.125z"/>
  <path id="svg_57" fill="#C0BFBD" d="m368,175c-0.61746,0.23074 -1.23492,0.46148 -1.87109,0.69922c-5.39957,2.07928 -10.25558,4.40103 -15.1211,7.54297c-2.00781,0.75781 -2.00781,0.75781 -4.26562,-0.10938c-0.57492,-0.37383 -1.14985,-0.74765 -1.74219,-1.13281c2.58166,-1.14974 5.16518,-2.2949 7.75,-3.4375c1.09441,-0.48823 1.09441,-0.48823 2.21094,-0.98633c1.06347,-0.46889 1.06347,-0.46889 2.14843,-0.94726c0.97405,-0.43204 0.97405,-0.43204 1.96778,-0.87281c3.53991,-1.39196 5.21433,-1.99227 8.92285,-0.7561z"/>
  <path id="svg_58" fill="#999AA7" d="m470,649c0.66,0.33 1.32,0.66 2,1c-0.08746,1.43861 -0.19565,2.87598 -0.3125,4.3125c-0.05801,0.80051 -0.11602,1.60102 -0.17578,2.42578c-0.60357,2.6677 -1.51343,3.46734 -3.51172,5.26172c-1.19028,2.59916 -1.19028,2.59916 -2,5c-1.35815,-4.07444 0.05254,-6.81468 1.4375,-10.6875c0.24299,-0.70189 0.48598,-1.40379 0.73633,-2.12695c0.60066,-1.73134 1.21237,-3.45883 1.82617,-5.18555z"/>
  <path id="svg_59" fill="#A9A7A6" d="m430,154c-6.49823,4.33215 -13.44593,4.27863 -21,4c2.84762,-2.84762 6.11125,-3.00436 9.9375,-3.6875c0.72896,-0.14244 1.45793,-0.28488 2.20898,-0.43164c3.39802,-0.62603 5.52533,-0.99026 8.85352,0.11914z"/>
  <path id="svg_60" fill="#C1BFBF" d="m685,838c-1.98,0.66 -3.96,1.32 -6,2c0,0.66 0,1.32 0,2c-3.96,1.65 -7.92,3.3 -12,5c-0.33,-0.66 -0.66,-1.32 -1,-2c2.40912,-1.36937 4.82574,-2.72042 7.25,-4.0625c0.68191,-0.38994 1.36383,-0.77988 2.06641,-1.18164c0.66386,-0.36416 1.32773,-0.72832 2.01171,-1.10352c0.60748,-0.34039 1.21495,-0.68078 1.84083,-1.03149c2.29199,-0.77714 3.57562,-0.38935 5.83105,0.37915z"/>
  <path id="svg_61" fill="#353E77" d="m422,633c0.125,6.75 0.125,6.75 -1,9c-0.66,0 -1.32,0 -2,0c-0.66,1.98 -1.32,3.96 -2,6c-1.48166,-2.96331 -0.48358,-4.89704 0.3125,-8.0625c0.26426,-1.0841 0.52852,-2.1682 0.80078,-3.28516c1.22104,-3.65234 1.22104,-3.65234 3.88672,-3.65234z"/>
  <path id="svg_62" fill="#CCCBD2" d="m456,683c0.66,0.66 1.32,1.32 2,2c-0.7425,0.84563 -1.485,1.69125 -2.25,2.5625c-1.89498,2.25162 -3.37912,4.4612 -4.75,7.0625c-2.00131,3.37722 -3.80589,5.15687 -7,7.375c1.41036,-2.96846 3.03296,-5.65489 4.875,-8.375c0.52594,-0.77988 1.05187,-1.55977 1.59375,-2.36328c0.50531,-0.74637 1.01063,-1.49274 1.53125,-2.26172c0.79278,-1.18676 1.58464,-2.37413 2.375,-3.5625c0.80437,-1.20656 0.80437,-1.20656 1.625,-2.4375z"/>
  <path id="svg_63" fill="#1D266C" d="m468,648c0.33,0 0.66,0 1,0c0.59245,6.66501 -1.51677,11.86953 -4,18c-0.66,0 -1.32,0 -2,0c1.24028,-6.17223 2.89604,-12.06682 5,-18z"/>
  <path id="svg_64" fill="#A8B3AD" d="m672,638c0.66,0.33 1.32,0.66 2,1c-2.1996,1.34989 -4.40784,2.67952 -6.625,4c-0.92619,0.57234 -0.92619,0.57234 -1.87109,1.15625c-3.99999,2.35789 -6.7274,3.31405 -11.50391,2.84375c3.38678,-2.82516 7.09913,-4.54004 11.125,-6.25c0.63293,-0.28102 1.26586,-0.56203 1.91797,-0.85156c1.62613,-0.69741 3.29007,-1.30519 4.95703,-1.89844z"/>
  <path id="svg_65" fill="#9DACA6" d="m508,579c1.11379,3.31823 0.87728,5.24821 -0.21484,8.54688c-0.27393,0.84433 -0.54786,1.68867 -0.83008,2.55859c-0.44183,1.30904 -0.44183,1.30904 -0.89258,2.64453c-0.29068,0.88816 -0.58137,1.77633 -0.88086,2.69141c-0.71803,2.18941 -1.4455,4.37521 -2.18164,6.55859c-1.04688,-1.85156 -1.04688,-1.85156 -2,-4c0.75,-2.375 0.75,-2.375 2,-5c0.30938,-0.92812 0.61875,-1.85625 0.9375,-2.8125c1.25675,-3.77025 2.65307,-7.47172 4.0625,-11.1875z"/>
  <path id="svg_66" fill="#9C9C9B" d="m875,567c0.33,0 0.66,0 1,0c0.35482,7.21472 -0.84087,13.12419 -3,20c-0.66,0 -1.32,0 -2,0c0.33,-2.64 0.66,-5.28 1,-8c0.66,0 1.32,0 2,0c-0.20625,-0.68062 -0.4125,-1.36125 -0.625,-2.0625c-0.47564,-3.72583 0.44831,-6.40743 1.625,-9.9375z"/>
  <path id="svg_67" fill="#A5A4B2" d="m464,667c0.66,0.33 1.32,0.66 2,1c-0.90191,6.17878 -1.9112,9.92896 -7,14c-0.99,0.495 -0.99,0.495 -2,1c0.30938,-0.76313 0.61875,-1.52625 0.9375,-2.3125c0.74144,-1.8754 1.42478,-3.77435 2.0625,-5.6875c0.66,0 1.32,0 2,0c0.21656,-1.42312 0.21656,-1.42312 0.4375,-2.875c0.5625,-3.125 0.5625,-3.125 1.5625,-5.125z"/>
  <path id="svg_68" fill="#9B9B9B" d="m877,541c0.66,0 1.32,0 2,0c0.05411,2.41697 0.09372,4.83272 0.125,7.25c0.01676,0.68191 0.03352,1.36383 0.05078,2.06641c0.03951,4.06896 -0.30028,5.93258 -2.17578,9.68359c-0.33,-2.97 -0.66,-5.94 -1,-9c0.66,0 1.32,0 2,0c-0.33,-3.3 -0.66,-6.6 -1,-10z"/>
  <path id="svg_69" fill="#B3C6BA" d="m610,405c8.07482,-0.3349 16.09321,0.27836 24,2c0.66,0.66 1.32,1.32 2,2c-3.19073,1.06358 -3.93376,0.8902 -7,0c-0.66,0 -1.32,0 -2,0c0,-0.66 0,-1.32 0,-2c-2.64,0.33 -5.28,0.66 -8,1c0,-0.66 0,-1.32 0,-2c-2.97,0 -5.94,0 -9,0c0,-0.33 0,-0.66 0,-1z"/>
  <path id="svg_70" fill="#A1A1A0" d="m376,168c0.66,0.33 1.32,0.66 2,1c-0.99,0.33 -1.98,0.66 -3,1c0,0.66 0,1.32 0,2c-3.11911,1.79276 -5.67682,2.34291 -9.25,2.625c-0.89203,0.07477 -1.78406,0.14953 -2.70313,0.22656c-0.67546,0.04899 -1.35093,0.09797 -2.04687,0.14844c2.96438,-1.97625 5.78788,-3.29887 9.0625,-4.6875c1.06348,-0.45762 2.12695,-0.91523 3.22266,-1.38672c0.89589,-0.30551 1.79179,-0.61101 2.71484,-0.92578z"/>
  <path id="svg_71" fill="#282F70" d="m403,670c-0.66,0 -1.32,0 -2,0c0,0.66 0,1.32 0,2c-4.62197,2.21855 -7.76824,3.38281 -13,3c2.29335,-1.5289 4.51165,-2.89775 6.9375,-4.1875c0.66902,-0.3648 1.33805,-0.72961 2.02734,-1.10547c2.42649,-0.84298 3.64773,-0.54557 6.03516,0.29297z"/>
  <path id="svg_72" fill="#9BA19F" d="m553,648c5.61,0.66 11.22,1.32 17,2c-0.33,0.66 -0.66,1.32 -1,2c-1.26844,-0.2475 -1.26844,-0.2475 -2.5625,-0.5c-3.46742,-0.60813 -3.46742,-0.60813 -7.125,-0.375c-3.3125,-0.125 -3.3125,-0.125 -6.3125,-3.125z"/>
  <path id="svg_73" fill="#6EB087" d="m651,412c2.00401,0.30831 4.00291,0.64963 6,1c0.76957,0.12246 1.53914,0.24492 2.33203,0.37109c0.79793,0.14567 1.59586,0.29133 2.41797,0.44141c0.75797,0.1302 1.51594,0.26039 2.29688,0.39453c1.95312,0.79297 1.95312,0.79297 3.21875,2.86719c0.36351,0.95326 0.36351,0.95326 0.73437,1.92578c-5.8566,-1.66153 -11.45901,-3.47042 -17,-6c0,-0.33 0,-0.66 0,-1z"/>
  <path id="svg_74" fill="#969596" d="m160,621c1.88978,2.83467 2.88096,5.18398 4,8.375c1.26083,3.57563 2.5698,7.11335 4,10.625c-0.99,0 -1.98,0 -3,0c-0.8408,-2.4143 -1.67281,-4.83104 -2.5,-7.25c-0.35771,-1.02287 -0.35771,-1.02287 -0.72266,-2.06641c-1.17155,-3.44772 -1.77734,-6.00062 -1.77734,-9.68359z"/>
  <path id="svg_75" fill="#799C8E" d="m657,580c1.22992,2.90707 1.00682,3.98181 -0.125,7c-1.96521,3.14433 -3.91501,4.81896 -6.875,7c-0.33,0.66 -0.66,1.32 -1,2c-0.66,-0.33 -1.32,-0.66 -2,-1c0.80438,-0.76313 1.60875,-1.52625 2.4375,-2.3125c2.73049,-2.48181 2.73049,-2.48181 3.5625,-5.6875c0.66,0 1.32,0 2,0c0.66,-2.31 1.32,-4.62 2,-7z"/>
  <path id="svg_76" fill="#CFCFCD" d="m183,345c0.68359,1.64063 0.68359,1.64063 1,4c-1.21484,2.79688 -1.21484,2.79688 -2.9375,5.75c-0.5659,0.98484 -1.1318,1.96969 -1.71484,2.98438c-0.44473,0.74765 -0.88946,1.49531 -1.34766,2.26562c-0.66,0 -1.32,0 -2,0c1.36591,-3.54243 2.90931,-6.92628 4.625,-10.3125c0.66902,-1.32451 0.66902,-1.32451 1.35156,-2.67578c0.33774,-0.66387 0.67547,-1.32774 1.02344,-2.01172z"/>
  <path id="svg_77" fill="#B4B4B2" d="m303,207c0.66,0.33 1.32,0.66 2,1c-4.47307,4.04166 -8.88277,7.80173 -14,11c-0.66,-0.33 -1.32,-0.66 -2,-1c1.58271,-1.27161 3.1662,-2.54225 4.75,-3.8125c0.88172,-0.7077 1.76344,-1.41539 2.67187,-2.14453c2.16806,-1.71802 4.35542,-3.39671 6.57813,-5.04297z"/>
  <path id="svg_78" fill="#B9B8B9" d="m503,564c1.32,0.33 2.64,0.66 4,1c-0.33,0.66 -0.66,1.32 -1,2c-0.66,0 -1.32,0 -2,0c-0.12117,0.85465 -0.24234,1.7093 -0.36719,2.58984c-0.16758,1.10473 -0.33515,2.20946 -0.50781,3.34766c-0.24363,1.65322 -0.24363,1.65322 -0.49219,3.33984c-0.20883,0.89848 -0.41765,1.79696 -0.63281,2.72266c-0.99,0.495 -0.99,0.495 -2,1c0.47986,-5.56891 1.29915,-10.67068 3,-16z"/>
  <path id="svg_79" fill="#5FAE7E" d="m669,365c4.83628,0.99044 9.47619,1.95699 14,4c-0.99,0.66 -1.98,1.32 -3,2c-2.26172,-0.46094 -2.26172,-0.46094 -4.6875,-1.375c-0.80824,-0.29648 -1.61648,-0.59297 -2.44922,-0.89844c-0.61488,-0.23976 -1.22976,-0.47953 -1.86328,-0.72656c0,-0.66 0,-1.32 0,-2c-0.66,-0.33 -1.32,-0.66 -2,-1z"/>
  <path id="svg_80" fill="#B7B6B5" d="m319,198c0,0.66 0,1.32 0,2c-0.99,0 -1.98,0 -3,0c-0.33,0.99 -0.66,1.98 -1,3c-2.8125,2.25 -2.8125,2.25 -6,4c-2.19922,-0.39062 -2.19922,-0.39062 -4,-1c1.95468,-1.33898 3.91336,-2.67129 5.875,-4c1.09055,-0.7425 2.18109,-1.485 3.30469,-2.25c2.82031,-1.75 2.82031,-1.75 4.82031,-1.75z"/>
  <path id="svg_81" fill="#B5B5B5" d="m594,870c0,0.66 0,1.32 0,2c-1.60342,0.33693 -3.20777,0.66941 -4.8125,1c-0.89332,0.18562 -1.78664,0.37125 -2.70703,0.5625c-2.48047,0.4375 -2.48047,0.4375 -5.48047,0.4375c0,-0.66 0,-1.32 0,-2c1.41539,-0.33873 2.83238,-0.67075 4.25,-1c1.18336,-0.27844 1.18336,-0.27844 2.39062,-0.5625c2.35938,-0.4375 2.35938,-0.4375 6.35938,-0.4375z"/>
  <path id="svg_82" fill="#1F2069" d="m447,692c0.33,0.99 0.66,1.98 1,3c-2.31,2.31 -4.62,4.62 -7,7c-0.99,-0.33 -1.98,-0.66 -3,-1c2.97,-2.97 5.94,-5.94 9,-9z"/>
  <path id="svg_83" fill="#171F6B" d="m415,657c0.33,0.66 0.66,1.32 1,2c-0.66,-0.33 -1.32,-0.66 -2,-1c0.33,-0.33 0.66,-0.66 1,-1zm-4,3c0.66,0.33 1.32,0.66 2,1c-2.65655,3.73884 -4.5811,5.64978 -9,7c0.33,-0.99 0.66,-1.98 1,-3c0.66,0 1.32,0 2,0c0.28875,-0.63938 0.5775,-1.27875 0.875,-1.9375c1.125,-2.0625 1.125,-2.0625 3.125,-3.0625z"/>
  <path id="svg_84" fill="#7A7B7B" d="m155,603c0.33,1.32 0.66,2.64 1,4c0.66,0 1.32,0 2,0c-0.33,1.32 -0.66,2.64 -1,4c0.66,0.33 1.32,0.66 2,1c0,2.64 0,5.28 0,8c-3.7661,-5.64916 -4.22756,-10.40077 -4,-17z"/>
  <path id="svg_85" fill="#CBCAC8" d="m189,333c0.33,0 0.66,0 1,0c0.61529,5.07612 -1.38342,7.82982 -4,12c-0.66,-0.33 -1.32,-0.66 -2,-1c1.22217,-4.04256 2.62754,-7.49289 5,-11z"/>
  <path id="svg_86" fill="#C0C0BF" d="m817,716c0.66,0.33 1.32,0.66 2,1c-3.96,5.94 -3.96,5.94 -8,12c-0.66,-0.66 -1.32,-1.32 -2,-2c2.64,-3.63 5.28,-7.26 8,-11z"/>
  <path id="svg_87" fill="#4B4B4B" d="m881,531c0.33,0 0.66,0 1,0c0.23584,5.77807 -0.13217,10.51325 -2,16c-0.33,0 -0.66,0 -1,0c-0.08998,-5.12882 0.0688,-9.93014 1,-15c0.33,-0.33 0.66,-0.66 1,-1z"/>
  <path id="svg_88" fill="#8E8E8D" d="m636,165c5.45479,0.56821 9.91059,1.94638 15,4c-0.33,0.99 -0.66,1.98 -1,3c-0.59168,-0.26555 -1.18336,-0.53109 -1.79297,-0.80469c-4.04195,-1.80668 -8.07697,-3.59658 -12.20703,-5.19531c0,-0.33 0,-0.66 0,-1z"/>
  <path id="svg_89" fill="#ABABAA" d="m579,874c-4.87794,3.25196 -9.22391,3.11326 -15,3c0.99,-0.66 1.98,-1.32 3,-2c0.99,0.33 1.98,0.66 3,1c0,-0.66 0,-1.32 0,-2c3.37817,-0.84454 5.67465,-1.10845 9,0z"/>
  <path id="svg_90" fill="#979897" d="m440,872c1.13889,0.21656 1.13889,0.21656 2.30078,0.4375c0.99387,0.18563 1.98774,0.37125 3.01172,0.5625c0.98613,0.18562 1.97227,0.37125 2.98828,0.5625c2.73704,0.5175 2.73704,0.5175 5.69922,0.4375c0,0.66 0,1.32 0,2c-5.52678,0.19392 -9.75615,-0.25205 -15,-2c0.33,-0.66 0.66,-1.32 1,-2z"/>
  <path id="svg_91" fill="#899792" d="m571,651c1.95804,-0.05389 3.91649,-0.09274 5.875,-0.125c1.63582,-0.0348 1.63582,-0.0348 3.30469,-0.07031c2.82031,0.19531 2.82031,0.19531 4.82031,2.19531c-2.31,0.33 -4.62,0.66 -7,1c0,-0.66 0,-1.32 0,-2c-2.31,0.33 -4.62,0.66 -7,1c0,-0.66 0,-1.32 0,-2z"/>
  <path id="svg_92" fill="#8D8D8D" d="m865,610c0.66,0 1.32,0 2,0c0.125,6.625 0.125,6.625 -1,10c-0.66,0 -1.32,0 -2,0c-0.33,0.66 -0.66,1.32 -1,2c0,-3.11227 0.45627,-5.94152 1,-9c0.66,0 1.32,0 2,0c-0.33,-0.99 -0.66,-1.98 -1,-3z"/>
  <path id="svg_94" fill="#525354" d="m239,760c2.932,2.85276 5.64315,5.6508 8,9c-3.78695,-0.54099 -5.62746,-2.03432 -8,-5c0,-1.32 0,-2.64 0,-4z"/>
  <path stroke="null" transform="matrix(1 0 0 1 0 0) matrix(1 0 0 1 0 0) matrix(1 0 0 1 0 0)" id="svg_95" fill="#283372" d="m421,622c1.87184,3.74369 2.24,4.84008 2.125,8.75c-0.01805,0.79922 -0.03609,1.59844 -0.05469,2.42188c-0.0232,0.60328 -0.0464,1.20656 -0.07031,1.82812c-0.99,-0.33 -1.98,-0.66 -3,-1c0.33,-3.96 0.66,-7.92 1,-12z"/>
  <path id="svg_96" fill="#ADADAC" d="m595,153c4.46839,-0.21278 7.82263,0.40862 12,2c-0.33,0.66 -0.66,1.32 -1,2c-3.68266,-0.5995 -7.34543,-1.24759 -11,-2c0,-0.66 0,-1.32 0,-2z"/>
  <path id="svg_97" fill="#9B9B9A" d="m336,836c5.75,0.875 5.75,0.875 8,2c0,0.66 0,1.32 0,2c0.99,0 1.98,0 3,0c0,0.66 0,1.32 0,2c-4.04256,-1.22217 -7.49289,-2.62754 -11,-5c0,-0.33 0,-0.66 0,-1z"/>
  <path id="svg_98" fill="#B7B6B6" d="m154,420c2.26538,4.53076 2.26538,4.53076 1.25,8.1875c-0.2707,1.04221 -0.2707,1.04221 -0.54687,2.10547c-0.70313,1.70703 -0.70313,1.70703 -2.70313,2.70703c0.66,-4.29 1.32,-8.58 2,-13z"/>
  <path id="svg_99" fill="#53AD77" d="m683,370c4.75482,0.57634 7.97048,2.55069 12,5c-0.66,0.66 -1.32,1.32 -2,2c-0.55687,-0.47438 -1.11375,-0.94875 -1.6875,-1.4375c-2.49596,-1.68646 -4.35712,-2.15203 -7.3125,-2.5625c-0.33,-0.99 -0.66,-1.98 -1,-3z"/>
  <path id="svg_100" fill="#959493" d="m477,145c0,0.33 0,0.66 0,1c-5.89893,1.79075 -9.93179,2.08361 -16,1c0,-0.33 0,-0.66 0,-1c5.40744,-0.77249 10.53862,-1.09752 16,-1z"/>
  <path id="svg_101" fill="#BDBCBC" d="m289,219c-1.49042,3.79379 -3.69063,5.68344 -7,8c-0.66,0 -1.32,0 -2,0c1.52635,-3.88526 4.50228,-8 9,-8z"/>
  <path id="svg_102" fill="#A8AAAF" d="m397,724c-0.33,0.66 -0.66,1.32 -1,2c-3.47325,1.15775 -6.36067,1.06867 -10,1c0.33,-0.66 0.66,-1.32 1,-2c3.36775,-0.93549 6.51844,-1.09947 10,-1z"/>
  <path id="svg_103" fill="#8AAB98" d="m575,521c1.43861,0.08746 2.87598,0.19565 4.3125,0.3125c0.80051,0.05801 1.60102,0.11602 2.42578,0.17578c2.62444,0.59379 3.56993,1.46952 5.26172,3.51172c-4.98863,0.29345 -7.96229,0.05887 -12,-3c0,-0.33 0,-0.66 0,-1z"/>
  <path id="svg_104" fill="#5BAA7B" d="m677,423c2.64,0 5.28,0 8,0c0.33,1.32 0.66,2.64 1,4c-5.53846,-0.61538 -5.53846,-0.61538 -7.875,-2.5625c-0.37125,-0.47437 -0.7425,-0.94875 -1.125,-1.4375z"/>
  <path id="svg_105" fill="#31A260" d="m630,405c2.72869,0.03288 5.29666,0.56398 8,1c0,0.66 0,1.32 0,2c0.66,0.33 1.32,0.66 2,1c-3.125,-0.52083 -6.25,-1.04167 -9.375,-1.5625c-0.86625,-0.14438 -1.7325,-0.28875 -2.625,-0.4375c0.66,-0.66 1.32,-1.32 2,-2z"/>
  <path id="svg_106" fill="#9A9A99" d="m607,156c5.4204,-0.40653 9.07016,0.96006 14,3c-3.33053,1.11018 -4.74412,0.87255 -8.125,0.1875c-1.33418,-0.25717 -1.33418,-0.25717 -2.69531,-0.51953c-0.7193,-0.22043 -1.4386,-0.44086 -2.17969,-0.66797c-0.33,-0.66 -0.66,-1.32 -1,-2z"/>
  <path id="svg_107" fill="#ADACAB" d="m761,781c0.99,0.33 1.98,0.66 3,1c-2.97,2.64 -5.94,5.28 -9,8c0,-3 0,-3 1.3125,-4.60547c0.55687,-0.52207 1.11375,-1.04414 1.6875,-1.58203c0.55687,-0.5298 1.11375,-1.05961 1.6875,-1.60547c0.64969,-0.59748 0.64969,-0.59748 1.3125,-1.20703z"/>
  <path id="svg_108" fill="#171962" d="m416,717c-4.2295,2.41686 -7.12336,3.34833 -12,3c4.0213,-2.68087 7.26031,-4.5799 12,-3z"/>
  <path id="svg_109" fill="#AAAAAA" d="m852,649c0.66,0 1.32,0 2,0c-0.60699,4.12751 -2.03811,7.33211 -4,11c-0.66,0 -1.32,0 -2,0c0.28875,-0.51562 0.5775,-1.03125 0.875,-1.5625c1.4128,-3.06107 2.24985,-6.18695 3.125,-9.4375z"/>
  <path id="svg_110" fill="#CECECD" d="m198,705c4.39158,1.46386 4.87947,3.97831 7,8c-0.99,0 -1.98,0 -3,0c-1.32,-2.64 -2.64,-5.28 -4,-8z"/>
  <path id="svg_111" fill="#3DA767" d="m697,381c1,2 1,2 0.1875,5.5c-1.1875,3.5 -1.1875,3.5 -3.1875,5.5c-0.33,-0.99 -0.66,-1.98 -1,-3c0.33,-0.66 0.66,-1.32 1,-2c0.66,0 1.32,0 2,0c-0.33,-0.99 -0.66,-1.98 -1,-3c0.66,-0.99 1.32,-1.98 2,-3z"/>
  <path id="svg_112" fill="#C6C5C5" d="m829,324c3.09169,2.52957 3.90931,5.22455 5,9c-0.99,-0.33 -1.98,-0.66 -3,-1c-1.10214,-2.72634 -2,-5.04144 -2,-8z"/>
  <path id="svg_113" fill="#676766" d="m424,151c2.31,0.33 4.62,0.66 7,1c-3.53411,2.12047 -6.94394,2.53199 -11,3c0.99,-0.33 1.98,-0.66 3,-1c0.33,-0.99 0.66,-1.98 1,-3z"/>
  <path id="svg_114" fill="#9E9F9D" d="m400,862c4.455,0.99 4.455,0.99 9,2c0,0.66 0,1.32 0,2c-3.3,-0.66 -6.6,-1.32 -10,-2c0.33,-0.66 0.66,-1.32 1,-2z"/>
  <path id="svg_115" fill="#B1BDB8" d="m653,648c-0.66,0 -1.32,0 -2,0c0,0.66 0,1.32 0,2c-2.97,0 -5.94,0 -9,0c4.01236,-2.67491 6.36575,-3.48958 11,-2z"/>
  <path id="svg_116" fill="#101A5F" d="m419,642c0.33,0 0.66,0 1,0c-0.61538,6.52308 -0.61538,6.52308 -2.5625,8.9375c-0.47438,0.35063 -0.94875,0.70125 -1.4375,1.0625c0.60991,-3.5578 1.57837,-6.68286 3,-10z"/>
  <path id="svg_117" fill="#1C6942" d="m676,634c0.66,0.33 1.32,0.66 2,1c-2.64,1.65 -5.28,3.3 -8,5c0,-0.99 0,-1.98 0,-3c1.96466,-1.06775 3.96855,-2.06553 6,-3z"/>
  <path id="svg_118" fill="#D0D6D0" d="m544,509c3.45925,1.24917 6.14693,2.67528 9,5c-3.375,-0.25 -3.375,-0.25 -7,-1c-1.4375,-2.0625 -1.4375,-2.0625 -2,-4z"/>
  <path id="svg_119" fill="#8CA797" d="m695,390c1.53641,4.60922 -0.17825,7.62781 -2,12c-1.12378,-3.30435 -0.89555,-5.05069 0.4375,-8.25c0.28746,-0.70641 0.57492,-1.41281 0.87109,-2.14062c0.22817,-0.5311 0.45633,-1.06219 0.69141,-1.60938z"/>
  <path id="svg_120" fill="#BDBBBB" d="m236,267c0.99,0.33 1.98,0.66 3,1c-1.375,1.5 -1.375,1.5 -3,3c-0.66,0 -1.32,0 -2,0c0,0.66 0,1.32 0,2c-0.99,-0.33 -1.98,-0.66 -3,-1c1.65,-1.65 3.3,-3.3 5,-5z"/>
  <path id="svg_121" fill="#919190" d="m472,877c3.68266,0.5995 7.34543,1.24759 11,2c0,0.33 0,0.66 0,1c-1.25812,0.02062 -2.51625,0.04125 -3.8125,0.0625c-0.7077,0.0116 -1.41539,0.0232 -2.14453,0.03516c-2.04297,-0.09766 -2.04297,-0.09766 -5.04297,-1.09766c0,-0.66 0,-1.32 0,-2z"/>
  <path id="svg_122" fill="#646464" d="m606,870c-3.2038,2.13587 -4.0194,2.23132 -7.6875,2.125c-1.21236,-0.02707 -1.21236,-0.02707 -2.44922,-0.05469c-0.92232,-0.0348 -0.92232,-0.0348 -1.86328,-0.07031c4.10216,-2.73477 7.26382,-3.57873 12,-2z"/>
  <path id="svg_123" fill="#75A589" d="m551,445c0.66,0 1.32,0 2,0c1.06775,1.96466 2.06553,3.96855 3,6c-0.33,0.66 -0.66,1.32 -1,2c-2,-1.75 -2,-1.75 -4,-4c0,-1.32 0,-2.64 0,-4z"/>
  <path id="svg_124" fill="#5E5D5D" d="m182,342c0.66,0 1.32,0 2,0c-0.49832,3.68755 -1.10068,5.60491 -4,8c-1,-3 -1,-3 0.3125,-5.6875c0.55688,-0.76313 1.11375,-1.52625 1.6875,-2.3125z"/>
  <path id="svg_125" fill="#5B5B5A" d="m355,175c1.32,0.66 2.64,1.32 4,2c-1.96466,1.06775 -3.96855,2.06553 -6,3c-0.66,-0.33 -1.32,-0.66 -2,-1c1.32,-1.32 2.64,-2.64 4,-4z"/>
  <path d="m218,558c-1,0 -4.186,-1.69257 -6,-3c-2.29454,-1.65381 -3.95517,-3.54913 -5,-7c-1.44891,-4.78546 -1,-11 -1,-17c0,-2 1.96384,-4.11584 5,-5c3.95868,-1.15277 7.0535,-1.45953 9,-1c2.17625,0.51373 4.49345,2.87854 5,6c0.32036,1.97418 0.38269,5.07611 0,6c-1.0824,2.6131 -4,2 -6,2c-1,0 -1.38269,-1.07611 -1,-2c0.5412,-1.30658 2,-2 6,-3l3,0l2,1l1,1" id="svg_127" fill="none"/>
 </g>
</svg>